<?xml version="1.0" encoding="UTF-8" standalone="no"?>
<!-- Created with Inkscape (http://www.inkscape.org/) -->

<svg
   version="1.1"
   id="svg1"
   width="168.04221"
   height="266.31729"
   viewBox="0 0 168.04221 266.31729"
   sodipodi:docname="case3.svg"
   inkscape:version="1.3.2 (091e20e, 2023-11-25, custom)"
   xmlns:inkscape="http://www.inkscape.org/namespaces/inkscape"
   xmlns:sodipodi="http://sodipodi.sourceforge.net/DTD/sodipodi-0.dtd"
   xmlns="http://www.w3.org/2000/svg"
   xmlns:svg="http://www.w3.org/2000/svg">
  <sodipodi:namedview
     id="namedview1"
     pagecolor="#ffffff"
     bordercolor="#000000"
     borderopacity="0.25"
     inkscape:showpageshadow="2"
     inkscape:pageopacity="0.0"
     inkscape:pagecheckerboard="0"
     inkscape:deskcolor="#d1d1d1"
     inkscape:zoom="3.202969"
     inkscape:cx="86.950575"
     inkscape:cy="121.60592"
     inkscape:window-width="1920"
     inkscape:window-height="1191"
     inkscape:window-x="-9"
     inkscape:window-y="-9"
     inkscape:window-maximized="1"
     inkscape:current-layer="g1">
    <inkscape:page
       x="0"
       y="0"
       inkscape:label="1"
       id="page1"
       width="168.04221"
       height="266.31729"
       margin="0"
       bleed="0" />
  </sodipodi:namedview>
  <defs
     id="defs1" />
  <g
     id="g1"
     inkscape:groupmode="layer"
     inkscape:label="1"
     transform="translate(0.00119401,-17.171568)">
    <path
       id="path1"
       d="m 41.309,120.758 c 0,19.32 -9.188,34.98 -20.52,34.98 -11.332,0 -20.519,-15.66 -20.519,-34.98 0,-19.32 9.187,-34.981 20.519,-34.981 11.332,0 20.52,15.661 20.52,34.981 z"
       style="fill:none;stroke:#000000;stroke-width:0.541791;stroke-linecap:butt;stroke-linejoin:miter;stroke-miterlimit:4;stroke-dasharray:none;stroke-opacity:1"
       transform="scale(1.3333333)" />
    <path
       id="path2"
       d="m 167.74549,65.85551 c 0,16.138679 -13.08163,29.225402 -29.22285,29.225402 -16.14123,0 -29.22712,-13.086723 -29.22712,-29.225402 0,-16.141184 13.08589,-29.224566 29.22712,-29.224566 16.14122,0 29.22285,13.083382 29.22285,29.224566 z"
       style="fill:none;stroke:#000000;stroke-width:0.591032;stroke-linecap:butt;stroke-linejoin:miter;stroke-miterlimit:4;stroke-dasharray:none;stroke-opacity:1" />
    <path
       id="path3"
       d="m 167.7455,253.97018 c 0,16.13707 -13.08604,29.22317 -29.22571,29.22317 -16.13966,0 -29.2243,-13.0861 -29.2243,-29.22317 0,-16.14124 13.08464,-29.22734 29.2243,-29.22734 16.13967,0 29.22571,13.0861 29.22571,29.22734 z"
       style="fill:none;stroke:#000000;stroke-width:0.590989;stroke-linecap:butt;stroke-linejoin:miter;stroke-miterlimit:4;stroke-dasharray:none;stroke-opacity:1" />
    <path
       id="path4"
       d="m 21.914,68.781 c 0.547,-0.859 1,-0.89 1.406,-0.906 0.125,-0.016 0.141,-0.203 0.141,-0.203 0,-0.094 -0.063,-0.141 -0.141,-0.141 -0.281,0 -0.609,0.031 -0.906,0.031 -0.359,0 -0.719,-0.031 -1.078,-0.031 -0.063,0 -0.203,0 -0.203,0.219 0,0.109 0.094,0.125 0.172,0.125 0.297,0.016 0.5,0.125 0.5,0.359 0,0.157 -0.157,0.407 -0.157,0.407 l -3.343,5.328 -0.75,-5.766 c 0,-0.187 0.25,-0.328 0.75,-0.328 0.156,0 0.281,0 0.281,-0.219 0,-0.094 -0.094,-0.125 -0.156,-0.125 -0.438,0 -0.907,0.031 -1.36,0.031 -0.187,0 -0.39,0 -0.593,0 -0.204,0 -0.407,-0.031 -0.594,-0.031 -0.078,0 -0.203,0 -0.203,0.219 0,0.125 0.093,0.125 0.281,0.125 0.609,0 0.609,0.094 0.641,0.375 l 0.875,6.719 c 0.031,0.219 0.062,0.25 0.218,0.25 0.172,0 0.203,-0.047 0.297,-0.188 z"
       style="fill:#000000;fill-opacity:1;fill-rule:nonzero;stroke:none"
       transform="scale(1.3333333)" />
    <path
       id="path5"
       d="m 23.809,71.652 c 0,-0.172 -0.125,-0.312 -0.313,-0.312 -0.203,0 -0.437,0.203 -0.437,0.437 0,0.172 0.125,0.297 0.312,0.297 0.203,0 0.438,-0.187 0.438,-0.422 z m -1.157,2.922 -0.437,1.094 c -0.047,0.125 -0.078,0.219 -0.078,0.359 0,0.391 0.297,0.672 0.718,0.672 0.782,0 1.11,-1.109 1.11,-1.219 0,-0.078 -0.063,-0.109 -0.125,-0.109 -0.094,0 -0.11,0.063 -0.141,0.141 -0.172,0.64 -0.5,0.968 -0.828,0.968 -0.094,0 -0.187,-0.046 -0.187,-0.25 0,-0.203 0.062,-0.343 0.156,-0.593 0.078,-0.203 0.156,-0.422 0.25,-0.641 l 0.25,-0.641 c 0.062,-0.187 0.172,-0.437 0.172,-0.578 0,-0.39 -0.328,-0.672 -0.735,-0.672 -0.765,0 -1.109,1.11 -1.109,1.219 0,0.078 0.062,0.11 0.125,0.11 0.109,0 0.109,-0.047 0.141,-0.125 0.218,-0.766 0.578,-0.985 0.828,-0.985 0.109,0 0.187,0.047 0.187,0.266 0,0.078 -0.015,0.187 -0.094,0.437 z"
       style="fill:#000000;fill-opacity:1;fill-rule:nonzero;stroke:none"
       transform="scale(1.3333333)" />
    <path
       id="path6"
       d="m 138.42205,18.838234 c 0.72933,-1.145333 1.33333,-1.188 1.87466,-1.208 0.168,-0.02133 0.188,-0.270666 0.188,-0.270666 0,-0.125334 -0.0827,-0.188 -0.188,-0.188 -0.37466,0 -0.812,0.04133 -1.208,0.04133 -0.47866,0 -0.95733,-0.04133 -1.43733,-0.04133 -0.0827,0 -0.27067,0 -0.27067,0.292 0,0.145333 0.12534,0.166666 0.22934,0.166666 0.396,0.02 0.66666,0.166667 0.66666,0.478667 0,0.208 -0.208,0.541333 -0.208,0.541333 l -4.45866,7.105334 -1,-7.688 c 0,-0.250667 0.33333,-0.437334 1,-0.437334 0.208,0 0.37466,0 0.37466,-0.292 0,-0.125333 -0.12533,-0.166666 -0.208,-0.166666 -0.584,0 -1.208,0.04133 -1.81333,0.04133 -0.24933,0 -0.52,0 -0.79067,0 -0.27066,0 -0.54266,-0.04133 -0.792,-0.04133 -0.104,0 -0.27066,0 -0.27066,0.292 0,0.166666 0.12533,0.166666 0.37466,0.166666 0.812,0 0.812,0.125334 0.85467,0.5 l 1.16667,8.958667 c 0.0413,0.290667 0.0827,0.333333 0.292,0.333333 0.228,0 0.27066,-0.06267 0.39466,-0.250666 z"
       style="fill:#000000;fill-opacity:1;fill-rule:nonzero;stroke:none;stroke-width:1.33333" />
    <path
       id="path7"
       d="m 142.17805,22.666234 c 0,-0.208 -0.16667,-0.416 -0.41734,-0.416 -0.33333,0 -0.604,0.312 -0.604,0.582667 0,0.208 0.16667,0.396 0.41734,0.396 0.312,0 0.604,-0.292 0.604,-0.562667 z m -2.22934,7.145334 c -0.16666,0.666666 -0.688,1.354666 -1.33333,1.354666 -0.16667,0 -0.33333,-0.04133 -0.35467,-0.06267 0.33334,-0.145333 0.37467,-0.437333 0.37467,-0.541333 0,-0.250667 -0.18667,-0.396 -0.416,-0.396 -0.292,0 -0.584,0.270667 -0.584,0.625333 0,0.396 0.396,0.666667 1,0.666667 0.64667,0 1.81333,-0.396 2.12533,-1.688 l 0.95867,-3.792 c 0.0413,-0.124 0.0627,-0.208 0.0627,-0.374666 0,-0.582667 -0.48,-1 -1.084,-1 -1.124,0 -1.79067,1.48 -1.79067,1.625333 0,0.104 0.0827,0.145333 0.16667,0.145333 0.104,0 0.124,-0.04133 0.18666,-0.186666 0.33334,-0.750667 0.87467,-1.292 1.396,-1.292 0.22934,0 0.35467,0.166666 0.35467,0.5 0,0.145333 -0.0213,0.312 -0.0627,0.458666 z"
       style="fill:#000000;fill-opacity:1;fill-rule:nonzero;stroke:none;stroke-width:1.33333" />
    <path
       id="path8"
       d="m 139.02699,210.25815 c 0.72934,-1.14667 1.33334,-1.188 1.87467,-1.20933 0.16667,-0.02 0.188,-0.27067 0.188,-0.27067 0,-0.124 -0.084,-0.18667 -0.188,-0.18667 -0.37467,0 -0.812,0.0413 -1.208,0.0413 -0.47867,0 -0.95867,-0.0413 -1.43733,-0.0413 -0.084,0 -0.27067,0 -0.27067,0.29067 0,0.14667 0.12533,0.16667 0.22933,0.16667 0.396,0.0213 0.66667,0.16666 0.66667,0.48 0,0.208 -0.20933,0.54133 -0.20933,0.54133 l -4.45733,7.104 -1,-7.68667 c 0,-0.25066 0.33333,-0.43866 1,-0.43866 0.208,0 0.37466,0 0.37466,-0.29067 0,-0.12533 -0.12533,-0.16667 -0.208,-0.16667 -0.584,0 -1.20933,0.0413 -1.81333,0.0413 -0.24933,0 -0.52,0 -0.79067,0 -0.272,0 -0.54266,-0.0413 -0.792,-0.0413 -0.104,0 -0.27066,0 -0.27066,0.29067 0,0.16667 0.124,0.16667 0.37466,0.16667 0.812,0 0.812,0.12533 0.85467,0.5 l 1.16667,8.95866 c 0.0413,0.292 0.0827,0.33334 0.29066,0.33334 0.22934,0 0.27067,-0.0627 0.396,-0.24934 z"
       style="fill:#000000;fill-opacity:1;fill-rule:nonzero;stroke:none;stroke-width:1.33333" />
    <path
       id="path9"
       d="m 141.49099,213.83548 c 0,-0.02 0.0413,-0.14533 0.0413,-0.16666 0,-0.0413 -0.0413,-0.14534 -0.16667,-0.14534 -0.0413,0 -0.37467,0.0413 -0.62533,0.0627 l -0.58267,0.0413 c -0.25067,0.0213 -0.35467,0.0213 -0.35467,0.208 0,0.16667 0.14534,0.16667 0.292,0.16667 0.5,0 0.5,0.0627 0.5,0.14667 0,0.0413 0,0.0627 -0.0413,0.24933 l -1.52133,6.04133 c -0.0413,0.16667 -0.0413,0.22934 -0.0413,0.22934 0,0.188 0.14534,0.33333 0.35334,0.33333 0.35466,0 0.43733,-0.33333 0.48,-0.47867 0.104,-0.45866 0.396,-1.584 0.5,-2.02133 0.58266,0.0627 1.312,0.25067 1.312,0.876 0,0.0413 0,0.104 -0.0213,0.208 -0.0413,0.12533 -0.0613,0.292 -0.0613,0.33333 0,0.62534 0.45733,1.08267 1.08267,1.08267 0.43733,0 0.72933,-0.33333 0.85466,-0.52 0.27067,-0.396 0.43734,-1.04267 0.43734,-1.104 0,-0.10533 -0.084,-0.14667 -0.16667,-0.14667 -0.12533,0 -0.14667,0.084 -0.188,0.27067 -0.14533,0.5 -0.416,1.20933 -0.916,1.20933 -0.27067,0 -0.33333,-0.22933 -0.33333,-0.52133 0,-0.14533 0,-0.27067 0.0627,-0.52133 0,-0.0413 0.0413,-0.208 0.0413,-0.312 0,-0.87467 -1.084,-1.06267 -1.62534,-1.14534 0.396,-0.22933 0.75067,-0.60533 0.87467,-0.72933 0.584,-0.584 1.06267,-0.98 1.584,-0.98 0.12533,0 0.24933,0.0427 0.33333,0.14667 -0.56266,0.0827 -0.56266,0.58266 -0.56266,0.58266 0,0.22934 0.188,0.396 0.416,0.396 0.292,0 0.60533,-0.22933 0.60533,-0.66666 0,-0.37467 -0.25067,-0.74934 -0.792,-0.74934 -0.604,0 -1.16667,0.47867 -1.77067,1.08267 -0.62533,0.604 -0.876,0.708 -1.06266,0.792 z"
       style="fill:#000000;fill-opacity:1;fill-rule:nonzero;stroke:none;stroke-width:1.33333" />
    <path
       id="path10"
       d="M 20.043,104.512 98.035,51.348"
       style="fill:none;stroke:#000000;stroke-width:0.749999;stroke-linecap:butt;stroke-linejoin:miter;stroke-miterlimit:4;stroke-dasharray:none;stroke-opacity:1"
       transform="scale(1.3333333)" />
    <path
       id="path11"
       d="m 22.141,138.07 77.996,53.164"
       style="fill:none;stroke:#000000;stroke-width:0.749999;stroke-linecap:butt;stroke-linejoin:miter;stroke-miterlimit:4;stroke-dasharray:none;stroke-opacity:1"
       transform="scale(1.3333333)" />
    <path
       id="path12"
       d="m 135.27509,66.978665 c 0,1.526667 -1.23467,2.761333 -2.76133,2.761333 -1.52,0 -2.76,-1.234666 -2.76,-2.761333 0,-1.525333 1.24,-2.76 2.76,-2.76 1.52666,0 2.76133,1.234667 2.76133,2.76 z"
       style="fill:#6666ea;fill-opacity:1;fill-rule:nonzero;stroke:#000000;stroke-width:0.999999;stroke-linecap:butt;stroke-linejoin:miter;stroke-miterlimit:4;stroke-dasharray:none;stroke-opacity:1" />
    <path
       id="path13"
       d="m 103.906,192.078 c 0,1.145 -0.929,2.07 -2.07,2.07 -1.145,0 -2.07,-0.925 -2.07,-2.07 0,-1.14 0.925,-2.07 2.07,-2.07 1.141,0 2.07,0.93 2.07,2.07 z"
       style="fill:#6666ea;fill-opacity:1;fill-rule:nonzero;stroke:#000000;stroke-width:0.749999;stroke-linecap:butt;stroke-linejoin:miter;stroke-miterlimit:4;stroke-dasharray:none;stroke-opacity:1"
       transform="scale(1.3333333)" />
    <path
       id="path14"
       d="m 21.816,103.988 c 0,1.145 -0.929,2.071 -2.07,2.071 -1.144,0 -2.07,-0.926 -2.07,-2.071 0,-1.14 0.926,-2.07 2.07,-2.07 1.141,0 2.07,0.93 2.07,2.07 z"
       style="fill:#6666ea;fill-opacity:1;fill-rule:nonzero;stroke:#000000;stroke-width:0.749999;stroke-linecap:butt;stroke-linejoin:miter;stroke-miterlimit:4;stroke-dasharray:none;stroke-opacity:1"
       transform="scale(1.3333333)" />
    <path
       id="path15"
       d="m 21.898,136.988 c 0,1.145 -0.925,2.071 -2.07,2.071 -1.14,0 -2.07,-0.926 -2.07,-2.071 0,-1.14 0.93,-2.07 2.07,-2.07 1.145,0 2.07,0.93 2.07,2.07 z"
       style="fill:#6666ea;fill-opacity:1;fill-rule:nonzero;stroke:#000000;stroke-width:0.749999;stroke-linecap:butt;stroke-linejoin:miter;stroke-miterlimit:4;stroke-dasharray:none;stroke-opacity:1"
       transform="scale(1.3333333)" />
    <path
       id="path16"
       d="m 11.59,102.699 c 0.062,-0.281 0.312,-1.281 1.078,-1.281 0.062,0 0.312,0 0.547,0.141 -0.297,0.046 -0.516,0.328 -0.516,0.593 0,0.172 0.11,0.375 0.406,0.375 0.25,0 0.594,-0.203 0.594,-0.625 0,-0.578 -0.64,-0.734 -1.015,-0.734 -0.641,0 -1.016,0.578 -1.141,0.844 -0.281,-0.735 -0.875,-0.844 -1.188,-0.844 -1.125,0 -1.75,1.422 -1.75,1.687 0,0.11 0.11,0.11 0.125,0.11 0.094,0 0.125,-0.016 0.141,-0.125 0.375,-1.156 1.094,-1.422 1.469,-1.422 0.203,0 0.594,0.094 0.594,0.734 0,0.328 -0.188,1.063 -0.594,2.594 -0.172,0.672 -0.563,1.125 -1.031,1.125 -0.079,0 -0.329,0 -0.547,-0.141 0.265,-0.046 0.5,-0.281 0.5,-0.578 0,-0.297 -0.235,-0.39 -0.391,-0.39 -0.328,0 -0.609,0.281 -0.609,0.64 0,0.5 0.547,0.719 1.031,0.719 0.719,0 1.109,-0.766 1.141,-0.828 0.14,0.391 0.531,0.828 1.187,0.828 1.109,0 1.734,-1.406 1.734,-1.687 0,-0.11 -0.093,-0.11 -0.125,-0.11 -0.093,0 -0.125,0.047 -0.14,0.125 -0.36,1.172 -1.11,1.422 -1.453,1.422 -0.422,0 -0.594,-0.344 -0.594,-0.719 0,-0.234 0.062,-0.468 0.172,-0.953 z"
       style="fill:#000000;fill-opacity:1;fill-rule:nonzero;stroke:none"
       transform="scale(1.3333333)" />
    <path
       id="path17"
       d="m 14.84,135.27 c 0.047,-0.157 0.047,-0.172 0.047,-0.25 0,-0.204 -0.157,-0.297 -0.313,-0.297 -0.109,0 -0.281,0.062 -0.39,0.234 -0.016,0.047 -0.11,0.391 -0.141,0.594 -0.078,0.281 -0.156,0.578 -0.219,0.859 l -0.5,1.969 c -0.047,0.156 -0.515,0.922 -1.234,0.922 -0.547,0 -0.672,-0.469 -0.672,-0.875 0,-0.5 0.187,-1.188 0.562,-2.141 0.172,-0.453 0.219,-0.562 0.219,-0.781 0,-0.5 -0.359,-0.906 -0.906,-0.906 -1.031,0 -1.438,1.593 -1.438,1.687 0,0.11 0.11,0.11 0.141,0.11 0.109,0 0.109,-0.016 0.172,-0.204 0.297,-1.015 0.734,-1.343 1.094,-1.343 0.093,0 0.281,0 0.281,0.343 0,0.282 -0.109,0.563 -0.188,0.766 -0.437,1.156 -0.64,1.781 -0.64,2.297 0,0.969 0.687,1.297 1.344,1.297 0.421,0 0.781,-0.188 1.093,-0.5 -0.14,0.578 -0.265,1.109 -0.703,1.687 -0.281,0.36 -0.703,0.688 -1.203,0.688 -0.156,0 -0.641,-0.031 -0.828,-0.469 0.172,0 0.312,0 0.469,-0.125 0.109,-0.094 0.218,-0.234 0.218,-0.453 0,-0.328 -0.296,-0.375 -0.406,-0.375 -0.25,0 -0.609,0.172 -0.609,0.703 0,0.547 0.484,0.953 1.156,0.953 1.125,0 2.25,-0.984 2.547,-2.219 z"
       style="fill:#000000;fill-opacity:1;fill-rule:nonzero;stroke:none"
       transform="scale(1.3333333)" />
    <path
       id="path18"
       d="m 109.844,193.59 c 0.594,-0.625 0.906,-0.906 1.297,-1.25 0,0 0.671,-0.578 1.062,-0.969 1.047,-1.016 1.281,-1.547 1.281,-1.594 0,-0.109 -0.093,-0.109 -0.125,-0.109 -0.078,0 -0.109,0.031 -0.156,0.125 -0.328,0.531 -0.562,0.703 -0.828,0.703 -0.25,0 -0.391,-0.172 -0.547,-0.359 -0.203,-0.25 -0.39,-0.469 -0.75,-0.469 -0.828,0 -1.328,1.016 -1.328,1.25 0,0.062 0.031,0.125 0.141,0.125 0.093,0 0.109,-0.063 0.14,-0.125 0.203,-0.5 0.828,-0.516 0.922,-0.516 0.235,0 0.438,0.078 0.688,0.172 0.437,0.156 0.562,0.156 0.843,0.156 -0.39,0.469 -1.312,1.25 -1.515,1.438 l -0.985,0.906 c -0.75,0.735 -1.125,1.36 -1.125,1.438 0,0.109 0.11,0.109 0.125,0.109 0.094,0 0.11,-0.031 0.188,-0.141 0.25,-0.39 0.578,-0.687 0.922,-0.687 0.25,0 0.359,0.109 0.625,0.422 0.187,0.234 0.39,0.406 0.703,0.406 1.078,0 1.719,-1.391 1.719,-1.687 0,-0.047 -0.047,-0.11 -0.141,-0.11 -0.094,0 -0.109,0.063 -0.156,0.141 -0.25,0.719 -0.938,0.922 -1.297,0.922 -0.219,0 -0.422,-0.063 -0.641,-0.141 -0.375,-0.141 -0.547,-0.187 -0.765,-0.187 -0.032,0 -0.203,0 -0.297,0.031 z"
       style="fill:#000000;fill-opacity:1;fill-rule:nonzero;stroke:none"
       transform="scale(1.3333333)" />
    <path
       id="path19"
       d="m 146.23376,65.082665 c 0.0827,-0.312 0.228,-0.853333 0.228,-0.937333 0,-0.270667 -0.208,-0.396 -0.416,-0.396 -0.188,0 -0.43734,0.125333 -0.54134,0.417333 -0.0427,0.104 -0.72933,2.874667 -0.83333,3.249333 -0.104,0.438667 -0.12533,0.709334 -0.12533,0.958667 0,0.166667 0,0.188 0.0213,0.270667 -0.35467,0.770666 -0.772,1.209333 -1.35467,1.209333 -1.16666,0 -1.16666,-1.062667 -1.16666,-1.313333 0,-0.478667 0.0827,-1.041334 0.77066,-2.833334 0.14534,-0.437333 0.25067,-0.625333 0.25067,-0.916 0,-0.666666 -0.48,-1.208 -1.20933,-1.208 -1.37467,0 -1.916,2.124 -1.916,2.249334 0,0.145333 0.14533,0.145333 0.18666,0.145333 0.14667,0 0.14667,-0.02 0.22934,-0.270667 0.396,-1.353333 0.95866,-1.790666 1.45866,-1.790666 0.14534,0 0.37467,0.02 0.37467,0.478666 0,0.353334 -0.16667,0.770667 -0.27067,1.02 -0.64533,1.709334 -0.812,2.376 -0.812,2.938667 0,1.312 0.97867,1.833333 2.06267,1.833333 0.24933,0 0.93733,0 1.52,-1.021333 0.376,0.916 1.376,1.021333 1.81333,1.021333 1.08267,0 1.72934,-0.917333 2.104,-1.792 0.5,-1.145333 0.95867,-3.084 0.95867,-3.792 0,-0.792 -0.396,-1.02 -0.62533,-1.02 -0.37467,0 -0.72934,0.394667 -0.72934,0.708 0,0.186667 0.0827,0.270667 0.208,0.396 0.16667,0.166667 0.52134,0.541334 0.52134,1.229334 0,0.498666 -0.41734,1.916 -0.792,2.666666 -0.37467,0.770667 -0.896,1.270667 -1.604,1.270667 -0.688,0 -1.084,-0.438667 -1.084,-1.250667 0,-0.416 0.10533,-0.874666 0.16666,-1.062666 z"
       style="fill:#000000;fill-opacity:1;fill-rule:nonzero;stroke:none;stroke-width:1.33333" />
    <path
       id="path20"
       d="M 19.418,105.691 V 134.34"
       style="fill:none;stroke:#000000;stroke-width:0.751181;stroke-linecap:butt;stroke-linejoin:miter;stroke-miterlimit:4;stroke-dasharray:2.25354302,2.25354302;stroke-dashoffset:0;stroke-opacity:1"
       transform="scale(1.3333333)" />
    <path
       id="path2-7"
       d="m 166.18444,158.75194 c 0,16.13868 -13.08163,29.2254 -29.22285,29.2254 -16.14123,0 -29.22712,-13.08672 -29.22712,-29.2254 0,-16.14118 13.08589,-29.22456 29.22712,-29.22456 16.14122,0 29.22285,13.08338 29.22285,29.22456 z"
       style="fill:none;stroke:#000000;stroke-width:0.591032;stroke-linecap:butt;stroke-linejoin:miter;stroke-miterlimit:4;stroke-dasharray:none;stroke-opacity:1" />
    <path
       id="path12-8"
       d="m 133.71404,159.8751 c 0,1.52666 -1.23466,2.76133 -2.76133,2.76133 -1.52,0 -2.76,-1.23467 -2.76,-2.76133 0,-1.52534 1.24,-2.76 2.76,-2.76 1.52667,0 2.76133,1.23466 2.76133,2.76 z"
       style="fill:#6666ea;fill-opacity:1;fill-rule:nonzero;stroke:#000000;stroke-width:0.999999;stroke-linecap:butt;stroke-linejoin:miter;stroke-miterlimit:4;stroke-dasharray:none;stroke-opacity:1" />
    <path
       id="path19-7"
       d="m 144.67271,157.9791 c 0.0827,-0.312 0.228,-0.85334 0.228,-0.93734 0,-0.27066 -0.208,-0.396 -0.416,-0.396 -0.188,0 -0.43733,0.12534 -0.54133,0.41734 -0.0427,0.104 -0.72934,2.87466 -0.83334,3.24933 -0.104,0.43867 -0.12533,0.70933 -0.12533,0.95867 0,0.16666 0,0.188 0.0213,0.27066 -0.35466,0.77067 -0.772,1.20934 -1.35466,1.20934 -1.16667,0 -1.16667,-1.06267 -1.16667,-1.31334 0,-0.47866 0.0827,-1.04133 0.77067,-2.83333 0.14533,-0.43733 0.25066,-0.62533 0.25066,-0.916 0,-0.66667 -0.48,-1.208 -1.20933,-1.208 -1.37467,0 -1.916,2.124 -1.916,2.24933 0,0.14534 0.14533,0.14534 0.18667,0.14534 0.14666,0 0.14666,-0.02 0.22933,-0.27067 0.396,-1.35333 0.95867,-1.79067 1.45867,-1.79067 0.14533,0 0.37466,0.02 0.37466,0.47867 0,0.35333 -0.16666,0.77067 -0.27066,1.02 -0.64534,1.70933 -0.812,2.376 -0.812,2.93867 0,1.312 0.97866,1.83333 2.06266,1.83333 0.24934,0 0.93734,0 1.52,-1.02133 0.376,0.916 1.376,1.02133 1.81334,1.02133 1.08266,0 1.72933,-0.91733 2.104,-1.792 0.5,-1.14533 0.95866,-3.084 0.95866,-3.792 0,-0.792 -0.396,-1.02 -0.62533,-1.02 -0.37467,0 -0.72933,0.39467 -0.72933,0.708 0,0.18667 0.0827,0.27067 0.208,0.396 0.16666,0.16667 0.52133,0.54133 0.52133,1.22933 0,0.49867 -0.41733,1.916 -0.792,2.66667 -0.37467,0.77067 -0.896,1.27067 -1.604,1.27067 -0.688,0 -1.084,-0.43867 -1.084,-1.25067 0,-0.416 0.10533,-0.87467 0.16667,-1.06267 z"
       style="fill:#000000;fill-opacity:1;fill-rule:nonzero;stroke:none;stroke-width:1.33333" />
    <path
       id="path10-4"
       d="m 26.227829,160.53503 101.178821,0.29842"
       style="fill:none;stroke:#000000;stroke-width:0.988136;stroke-linecap:butt;stroke-linejoin:miter;stroke-miterlimit:4;stroke-dasharray:none;stroke-opacity:1"
       sodipodi:nodetypes="cc" />
    <g
       inkscape:label=""
       transform="translate(130.03562,111.30249)"
       id="g23">
      <g
         fill="#000000"
         fill-opacity="1"
         id="g3"
         transform="matrix(1.33333,0,0,1.33333,-3.46983,-2.6585)">
        <g
           id="use2"
           transform="translate(1.993,9.4469995)">
          <path
             d="M 6.84375,-6.203125 C 7.390625,-7.0625 7.84375,-7.09375 8.25,-7.109375 8.375,-7.125 8.390625,-7.3125 8.390625,-7.3125 c 0,-0.09375 -0.0625,-0.140625 -0.140625,-0.140625 -0.28125,0 -0.609375,0.03125 -0.90625,0.03125 -0.359375,0 -0.71875,-0.03125 -1.078125,-0.03125 -0.0625,0 -0.203125,0 -0.203125,0.21875 0,0.109375 0.09375,0.125 0.171875,0.125 0.296875,0.015625 0.5,0.125 0.5,0.359375 0,0.15625 -0.15625,0.40625 -0.15625,0.40625 l -3.34375,5.328125 -0.75,-5.765625 c 0,-0.1875 0.25,-0.328125 0.75,-0.328125 0.15625,0 0.28125,0 0.28125,-0.21875 0,-0.09375 -0.09375,-0.125 -0.15625,-0.125 -0.4375,0 -0.90625,0.03125 -1.359375,0.03125 -0.1875,0 -0.390625,0 -0.59375,0 -0.203125,0 -0.40625,-0.03125 -0.59375,-0.03125 -0.078125,0 -0.203125,0 -0.203125,0.21875 0,0.125 0.09375,0.125 0.28125,0.125 0.609375,0 0.609375,0.09375 0.640625,0.375 l 0.875,6.71875 c 0.03125,0.21875 0.0625,0.25 0.21875,0.25 0.171875,0 0.203125,-0.046875 0.296875,-0.1875 z m 0,0"
             id="path22" />
        </g>
      </g>
      <g
         fill="#000000"
         fill-opacity="1"
         id="g4"
         transform="matrix(1.33333,0,0,1.33333,-3.46983,-2.6585)">
        <g
           id="use3"
           transform="translate(8.3559999,11.224)">
          <path
             d="m 2.09375,-5.296875 c 0,-0.015625 0.03125,-0.109375 0.03125,-0.125 0,-0.03125 -0.03125,-0.109375 -0.140625,-0.109375 L 1.1875,-5.46875 c -0.296875,0.03125 -0.359375,0.03125 -0.359375,0.171875 0,0.125 0.109375,0.125 0.203125,0.125 0.390625,0 0.390625,0.046875 0.390625,0.109375 0,0.03125 0,0.046875 -0.046875,0.1875 l -0.984375,3.953125 c -0.03125,0.125 -0.03125,0.25 -0.03125,0.25 0,0.5 0.40625,0.75 0.796875,0.75 0.34375,0 0.53125,-0.265625 0.625,-0.4375 C 1.921875,-0.625 2.046875,-1.09375 2.046875,-1.140625 2.046875,-1.1875 2.015625,-1.25 1.90625,-1.25 c -0.0625,0 -0.09375,0.046875 -0.09375,0.0625 -0.015625,0.015625 -0.046875,0.15625 -0.078125,0.25 -0.109375,0.453125 -0.265625,0.796875 -0.5625,0.796875 -0.1875,0 -0.234375,-0.1875 -0.234375,-0.375 0,-0.15625 0.015625,-0.234375 0.046875,-0.34375 z m 0,0"
             id="path23" />
        </g>
      </g>
    </g>
  </g>
</svg>
