<?xml version="1.0" encoding="UTF-8" standalone="no"?>
<!-- Created with Inkscape (http://www.inkscape.org/) -->

<svg
   width="47.741695mm"
   height="35.956421mm"
   viewBox="0 0 47.741695 35.956421"
   version="1.1"
   id="svg1"
   inkscape:version="1.3.2 (091e20e, 2023-11-25, custom)"
   sodipodi:docname="G1G2xy.svg"
   xmlns:inkscape="http://www.inkscape.org/namespaces/inkscape"
   xmlns:sodipodi="http://sodipodi.sourceforge.net/DTD/sodipodi-0.dtd"
   xmlns="http://www.w3.org/2000/svg"
   xmlns:svg="http://www.w3.org/2000/svg">
  <sodipodi:namedview
     id="namedview1"
     pagecolor="#ffffff"
     bordercolor="#000000"
     borderopacity="0.25"
     inkscape:showpageshadow="2"
     inkscape:pageopacity="0.0"
     inkscape:pagecheckerboard="0"
     inkscape:deskcolor="#d1d1d1"
     inkscape:document-units="mm"
     inkscape:zoom="4.7118628"
     inkscape:cx="76.084559"
     inkscape:cy="83.088158"
     inkscape:window-width="1920"
     inkscape:window-height="1191"
     inkscape:window-x="-9"
     inkscape:window-y="-9"
     inkscape:window-maximized="1"
     inkscape:current-layer="layer1" />
  <defs
     id="defs1" />
  <g
     inkscape:label="Layer 1"
     inkscape:groupmode="layer"
     id="layer1"
     transform="translate(-22.754167,-48.487735)">
    <path
       id="path1"
       d="m 37.327379,66.137719 c 0,6.815666 -3.241322,12.340166 -7.238999,12.340166 -3.997678,0 -7.238647,-5.5245 -7.238647,-12.340166 0,-6.815667 3.240969,-12.340519 7.238647,-12.340519 3.997677,0 7.238999,5.524852 7.238999,12.340519 z"
       style="fill:none;stroke:#000000;stroke-width:0.191132;stroke-linecap:butt;stroke-linejoin:miter;stroke-miterlimit:4;stroke-dasharray:none;stroke-opacity:1" />
    <path
       id="path14"
       d="m 30.450683,60.221636 c 0,0.40393 -0.327731,0.730602 -0.73025,0.730602 -0.403578,0 -0.73025,-0.326672 -0.73025,-0.730602 0,-0.402167 0.326672,-0.73025 0.73025,-0.73025 0.402519,0 0.73025,0.328083 0.73025,0.73025 z"
       style="fill:#6666ea;fill-opacity:1;fill-rule:nonzero;stroke:#000000;stroke-width:0.264583;stroke-linecap:butt;stroke-linejoin:miter;stroke-miterlimit:4;stroke-dasharray:none;stroke-opacity:1" />
    <path
       id="path14-0"
       d="m 30.332791,66.249541 c 0,0.40393 -0.327731,0.730602 -0.73025,0.730602 -0.403578,0 -0.73025,-0.326672 -0.73025,-0.730602 0,-0.402167 0.326672,-0.73025 0.73025,-0.73025 0.402519,0 0.73025,0.328083 0.73025,0.73025 z"
       style="fill:#6666ea;fill-opacity:1;fill-rule:nonzero;stroke:#000000;stroke-width:0.264583;stroke-linecap:butt;stroke-linejoin:miter;stroke-miterlimit:4;stroke-dasharray:none;stroke-opacity:1" />
    <path
       id="path14-9"
       d="m 63.476791,66.250291 c 0,0.403 -0.327731,0.73 -0.73025,0.73 -0.403578,0 -0.73025,-0.327 -0.73025,-0.73 0,-0.403 0.326672,-0.731 0.73025,-0.731 0.402519,0 0.73025,0.328 0.73025,0.731 z"
       style="fill:#6666ea;fill-opacity:1;fill-rule:nonzero;stroke:#000000;stroke-width:0.264583;stroke-linecap:butt;stroke-linejoin:miter;stroke-miterlimit:4;stroke-dasharray:none;stroke-opacity:1" />
    <path
       id="path15"
       d="m 30.47961,71.863302 c 0,0.40393 -0.326319,0.730603 -0.73025,0.730603 -0.402166,0 -0.73025,-0.326673 -0.73025,-0.730603 0,-0.402167 0.328084,-0.73025 0.73025,-0.73025 0.403931,0 0.73025,0.328083 0.73025,0.73025 z"
       style="fill:#6666ea;fill-opacity:1;fill-rule:nonzero;stroke:#000000;stroke-width:0.264583;stroke-linecap:butt;stroke-linejoin:miter;stroke-miterlimit:4;stroke-dasharray:none;stroke-opacity:1" />
    <path
       id="path15-1"
       d="m 45.778208,71.862541 c 0,0.40393 -0.326319,0.730603 -0.73025,0.730603 -0.402166,0 -0.73025,-0.326673 -0.73025,-0.730603 0,-0.402167 0.328084,-0.73025 0.73025,-0.73025 0.403931,0 0.73025,0.328083 0.73025,0.73025 z"
       style="fill:#6666ea;fill-opacity:1;fill-rule:nonzero;stroke:#000000;stroke-width:0.264583;stroke-linecap:butt;stroke-linejoin:miter;stroke-miterlimit:4;stroke-dasharray:none;stroke-opacity:1" />
    <path
       id="path16"
       d="m 45.415895,56.636268 c 0.02187,-0.09913 0.110067,-0.451908 0.380295,-0.451908 0.02187,0 0.110066,0 0.192969,0.04974 -0.104775,0.01623 -0.182033,0.115711 -0.182033,0.209197 0,0.06068 0.0388,0.132291 0.143228,0.132291 0.08819,0 0.20955,-0.07161 0.20955,-0.220486 0,-0.203905 -0.225778,-0.258939 -0.35807,-0.258939 -0.22613,0 -0.358422,0.203906 -0.402519,0.297745 -0.09913,-0.259292 -0.308681,-0.297745 -0.4191,-0.297745 -0.396875,0 -0.617361,0.50165 -0.617361,0.595137 0,0.0388 0.0388,0.0388 0.0441,0.0388 0.03316,0 0.0441,-0.0056 0.04974,-0.0441 0.132291,-0.407811 0.385938,-0.50165 0.51823,-0.50165 0.07161,0 0.20955,0.03316 0.20955,0.258939 0,0.115711 -0.06632,0.375002 -0.20955,0.915105 -0.06068,0.237067 -0.198614,0.396875 -0.363714,0.396875 -0.02787,0 -0.116064,0 -0.192969,-0.04974 0.09349,-0.01623 0.176389,-0.09913 0.176389,-0.203906 0,-0.104775 -0.0829,-0.137583 -0.137936,-0.137583 -0.115712,0 -0.214842,0.09913 -0.214842,0.225777 0,0.176389 0.192969,0.253648 0.363714,0.253648 0.253647,0 0.39123,-0.270228 0.402519,-0.2921 0.04939,0.137936 0.187325,0.2921 0.418747,0.2921 0.391231,0 0.611717,-0.496006 0.611717,-0.595136 0,-0.03881 -0.03281,-0.03881 -0.0441,-0.03881 -0.03281,0 -0.0441,0.01658 -0.04939,0.0441 -0.127,0.413456 -0.391583,0.50165 -0.512586,0.50165 -0.148872,0 -0.20955,-0.121355 -0.20955,-0.253647 0,-0.08255 0.02187,-0.1651 0.06068,-0.336197 z"
       style="fill:#000000;fill-opacity:1;fill-rule:nonzero;stroke:none;stroke-width:0.352778" />
    <path
       id="path17"
       d="m 45.876621,74.116054 c 0.01658,-0.05539 0.01658,-0.06068 0.01658,-0.0882 0,-0.07197 -0.05539,-0.104775 -0.11042,-0.104775 -0.03845,0 -0.09913,0.02187 -0.137583,0.08255 -0.0056,0.01658 -0.03881,0.137936 -0.04974,0.20955 -0.02752,0.09913 -0.05503,0.203906 -0.07726,0.303036 l -0.176389,0.69462 c -0.01658,0.05503 -0.181681,0.325261 -0.435328,0.325261 -0.192969,0 -0.237067,-0.165453 -0.237067,-0.308681 0,-0.176389 0.06597,-0.4191 0.198262,-0.755297 0.06068,-0.159808 0.07726,-0.198261 0.07726,-0.275519 0,-0.176389 -0.126647,-0.319617 -0.319617,-0.319617 -0.363714,0 -0.507294,0.561975 -0.507294,0.595136 0,0.03881 0.0388,0.03881 0.04974,0.03881 0.03845,0 0.03845,-0.0056 0.06068,-0.07197 0.104775,-0.35807 0.258939,-0.473781 0.385939,-0.473781 0.03281,0 0.09913,0 0.09913,0.121003 0,0.09948 -0.03845,0.198614 -0.06632,0.270228 -0.154163,0.407811 -0.225777,0.628297 -0.225777,0.81033 0,0.341842 0.242358,0.457553 0.474133,0.457553 0.148519,0 0.275519,-0.06632 0.385586,-0.176389 -0.04939,0.203906 -0.09349,0.391231 -0.248003,0.595136 -0.09913,0.127 -0.248002,0.242711 -0.424391,0.242711 -0.05503,0 -0.226131,-0.01094 -0.2921,-0.165452 0.06068,0 0.110066,0 0.165452,-0.0441 0.03845,-0.03316 0.07691,-0.08255 0.07691,-0.159808 0,-0.115711 -0.104422,-0.132291 -0.143228,-0.132291 -0.08819,0 -0.214841,0.06068 -0.214841,0.248002 0,0.19297 0.170744,0.336197 0.407811,0.336197 0.396875,0 0.79375,-0.347133 0.898525,-0.782813 z"
       style="fill:#000000;fill-opacity:1;fill-rule:nonzero;stroke:none;stroke-width:0.352778" />
    <path
       id="path20"
       d="m 29.604722,60.822416 v 10.10673"
       style="fill:none;stroke:#000000;stroke-width:0.265;stroke-linecap:butt;stroke-linejoin:miter;stroke-miterlimit:4;stroke-dasharray:0.794999, 0.794999;stroke-dashoffset:0;stroke-opacity:1" />
    <path
       id="path1-2"
       d="m 70.400295,66.142297 c 0,6.815666 -3.241322,12.340166 -7.238999,12.340166 -3.997678,0 -7.238647,-5.5245 -7.238647,-12.340166 0,-6.815667 3.240969,-12.340519 7.238647,-12.340519 3.997677,0 7.238999,5.524852 7.238999,12.340519 z"
       style="fill:none;stroke:#000000;stroke-width:0.191132;stroke-linecap:butt;stroke-linejoin:miter;stroke-miterlimit:4;stroke-dasharray:none;stroke-opacity:1" />
    <path
       id="path14-3"
       d="m 63.523599,60.226214 c 0,0.40393 -0.327731,0.730602 -0.73025,0.730602 -0.403578,0 -0.73025,-0.326672 -0.73025,-0.730602 0,-0.402167 0.326672,-0.73025 0.73025,-0.73025 0.402519,0 0.73025,0.328083 0.73025,0.73025 z"
       style="fill:#6666ea;fill-opacity:1;fill-rule:nonzero;stroke:#000000;stroke-width:0.264583;stroke-linecap:butt;stroke-linejoin:miter;stroke-miterlimit:4;stroke-dasharray:none;stroke-opacity:1" />
    <path
       id="path15-8"
       d="m 63.552526,71.86788 c 0,0.40393 -0.326319,0.730603 -0.73025,0.730603 -0.402166,0 -0.73025,-0.326673 -0.73025,-0.730603 0,-0.402167 0.328084,-0.73025 0.73025,-0.73025 0.403931,0 0.73025,0.328083 0.73025,0.73025 z"
       style="fill:#6666ea;fill-opacity:1;fill-rule:nonzero;stroke:#000000;stroke-width:0.264583;stroke-linecap:butt;stroke-linejoin:miter;stroke-miterlimit:4;stroke-dasharray:none;stroke-opacity:1" />
    <path
       id="path20-7"
       d="m 62.677638,60.826994 v 10.10673"
       style="fill:none;stroke:#000000;stroke-width:0.265;stroke-linecap:butt;stroke-linejoin:miter;stroke-miterlimit:4;stroke-dasharray:0.794999, 0.794999;stroke-dashoffset:0;stroke-opacity:1" />
    <path
       id="path14-1"
       d="m 45.778208,60.199541 c 0,0.40393 -0.327731,0.730602 -0.73025,0.730602 -0.403578,0 -0.73025,-0.326672 -0.73025,-0.730602 0,-0.402167 0.326672,-0.73025 0.73025,-0.73025 0.402519,0 0.73025,0.328083 0.73025,0.73025 z"
       style="fill:#6666ea;fill-opacity:1;fill-rule:nonzero;stroke:#000000;stroke-width:0.264583;stroke-linecap:butt;stroke-linejoin:miter;stroke-miterlimit:4;stroke-dasharray:none;stroke-opacity:1" />
    <path
       style="fill:#000000;stroke:#000000;stroke-width:0.307999;stroke-dasharray:none"
       d="M 30.378556,60.195584 H 44.360552"
       id="path2" />
    <path
       style="fill:#000000;stroke:#000000;stroke-width:0.307999;stroke-dasharray:none"
       d="M 45.764367,60.251736 H 61.880162"
       id="path3" />
    <path
       style="fill:#000000;stroke:#000000;stroke-width:0.307999;stroke-dasharray:none"
       d="m 45.82052,60.279814 16.228098,5.98025"
       id="path6"
       sodipodi:nodetypes="cc" />
    <path
       style="fill:#000000;stroke:#000000;stroke-width:0.307999;stroke-dasharray:none"
       d="M 45.792442,71.875324 H 62.048619"
       id="path7" />
    <path
       style="fill:#000000;stroke:#000000;stroke-width:0.307999;stroke-dasharray:none"
       d="M 30.434708,71.875324 H 44.304399"
       id="path8" />
    <path
       style="fill:#000000;stroke:#000000;stroke-width:0.307999;stroke-dasharray:none"
       d="M 30.294326,66.231989 45.06246,71.173416"
       id="path9" />
    <path
       style="fill:#000000;stroke:#000000;stroke-width:0.307999;stroke-dasharray:none"
       d="M 45.006307,60.897491 V 71.173416"
       id="path10" />
    <path
       style="fill:none;stroke:#000000;stroke-width:0.365219;stroke-dasharray:none"
       d="M 70.26282,55.006499 V 53.420185 H 45.299222 v 1.531614"
       id="path11" />
    <path
       style="fill:none;stroke:#000000;stroke-width:0.351787;stroke-dasharray:none"
       d="m 46.068498,77.697543 v 1.596224 H 23.051165 v -1.541183"
       id="path11-9" />
    <g
       inkscape:label=""
       transform="translate(27.93591,80.943936)"
       id="g21">
      <g
         fill="#000000"
         fill-opacity="1"
         id="g6"
         transform="matrix(0.352778,0,0,0.352778,-0.896011,-0.620712)">
        <g
           id="use5"
           transform="translate(1.993,9.4469995)">
          <path
             d="M 8.28125,-7.578125 C 8.28125,-7.609375 8.265625,-7.6875 8.171875,-7.6875 8.140625,-7.6875 8.125,-7.671875 8,-7.5625 L 7.234375,-6.71875 C 7.140625,-6.875 6.640625,-7.6875 5.4375,-7.6875 3,-7.6875 0.546875,-5.28125 0.546875,-2.75 c 0,1.734375 1.203125,2.984375 2.96875,2.984375 0.484375,0 0.984375,-0.09375 1.375,-0.25 0.546875,-0.21875 0.75,-0.453125 0.9375,-0.671875 0.109375,0.265625 0.390625,0.671875 0.5,0.671875 0.046875,0 0.078125,-0.03125 0.078125,-0.03125 0.015625,-0.03125 0.125,-0.4375 0.1875,-0.671875 L 6.796875,-1.5625 C 6.84375,-1.75 6.890625,-1.9375 6.9375,-2.109375 c 0.125,-0.5 0.125,-0.515625 0.75,-0.53125 0.0625,0 0.171875,-0.015625 0.171875,-0.21875 0,-0.078125 -0.046875,-0.125 -0.140625,-0.125 -0.25,0 -0.890625,0.046875 -1.140625,0.046875 -0.34375,0 -1.1875,-0.046875 -1.53125,-0.046875 -0.09375,0 -0.21875,0 -0.21875,0.21875 0,0.125 0.078125,0.125 0.3125,0.125 0.015625,0 0.328125,0 0.578125,0.015625 0.296875,0.046875 0.34375,0.078125 0.34375,0.21875 0,0.09375 -0.125,0.578125 -0.234375,0.984375 -0.296875,1.203125 -1.71875,1.328125 -2.09375,1.328125 -1.046875,0 -2.203125,-0.625 -2.203125,-2.296875 0,-0.328125 0.109375,-2.140625 1.265625,-3.546875 0.578125,-0.75 1.640625,-1.40625 2.71875,-1.40625 1.109375,0 1.765625,0.828125 1.765625,2.09375 0,0.4375 -0.046875,0.453125 -0.046875,0.5625 0,0.109375 0.125,0.109375 0.171875,0.109375 0.140625,0 0.140625,-0.03125 0.203125,-0.21875 z m 0,0"
             id="path12" />
        </g>
      </g>
      <g
         fill="#000000"
         fill-opacity="1"
         id="g7"
         transform="matrix(0.352778,0,0,0.352778,-0.896011,-0.620712)">
        <g
           id="use6"
           transform="translate(10.57,11.084)">
          <path
             d="m 2.5,-5.078125 c 0,-0.21875 -0.015625,-0.21875 -0.234375,-0.21875 -0.328125,0.3125 -0.75,0.5 -1.5,0.5 v 0.265625 c 0.21875,0 0.640625,0 1.109375,-0.203125 v 4.078125 c 0,0.296875 -0.03125,0.390625 -0.78125,0.390625 H 0.8125 V 0 c 0.328125,-0.03125 1.015625,-0.03125 1.375,-0.03125 0.359375,0 1.046875,0 1.375,0.03125 V -0.265625 H 3.28125 c -0.75,0 -0.78125,-0.09375 -0.78125,-0.390625 z m 0,0"
             id="path13" />
        </g>
      </g>
      <g
         fill="#000000"
         fill-opacity="1"
         id="g8"
         transform="matrix(0.352778,0,0,0.352778,-0.896011,-0.620712)">
        <g
           id="use7"
           transform="translate(17.726,9.4469995)">
          <path
             d="M 4.453125,-2.515625 H 7.5 c 0.15625,0 0.359375,0 0.359375,-0.203125 C 7.859375,-2.9375 7.65625,-2.9375 7.5,-2.9375 H 4.453125 V -6 c 0,-0.15625 0,-0.359375 -0.203125,-0.359375 -0.21875,0 -0.21875,0.203125 -0.21875,0.359375 v 3.0625 h -3.0625 c -0.15625,0 -0.359375,0 -0.359375,0.21875 0,0.203125 0.203125,0.203125 0.359375,0.203125 h 3.0625 v 3.0625 c 0,0.15625 0,0.359375 0.21875,0.359375 0.203125,0 0.203125,-0.203125 0.203125,-0.359375 z m 0,0"
             id="path18" />
        </g>
      </g>
      <g
         fill="#000000"
         fill-opacity="1"
         id="g9"
         transform="matrix(0.352778,0,0,0.352778,-0.896011,-0.620712)">
        <g
           id="use8"
           transform="translate(28.635,9.4469995)">
          <path
             d="m 3.640625,-3.296875 c 0.0625,-0.28125 0.3125,-1.28125 1.078125,-1.28125 0.0625,0 0.3125,0 0.546875,0.140625 C 4.96875,-4.390625 4.75,-4.109375 4.75,-3.84375 c 0,0.171875 0.109375,0.375 0.40625,0.375 0.25,0 0.59375,-0.203125 0.59375,-0.625 0,-0.578125 -0.640625,-0.734375 -1.015625,-0.734375 -0.640625,0 -1.015625,0.578125 -1.140625,0.84375 -0.28125,-0.734375 -0.875,-0.84375 -1.1875,-0.84375 -1.125,0 -1.75,1.421875 -1.75,1.6875 0,0.109375 0.109375,0.109375 0.125,0.109375 0.09375,0 0.125,-0.015625 0.140625,-0.125 0.375,-1.15625 1.09375,-1.421875 1.46875,-1.421875 0.203125,0 0.59375,0.09375 0.59375,0.734375 0,0.328125 -0.1875,1.0625 -0.59375,2.59375 -0.171875,0.671875 -0.5625,1.125 -1.03125,1.125 -0.078125,0 -0.328125,0 -0.546875,-0.140625 0.265625,-0.046875 0.5,-0.28125 0.5,-0.578125 0,-0.296875 -0.234375,-0.390625 -0.390625,-0.390625 -0.328125,0 -0.609375,0.28125 -0.609375,0.640625 0,0.5 0.546875,0.71875 1.03125,0.71875 0.71875,0 1.109375,-0.765625 1.140625,-0.828125 C 2.625,-0.3125 3.015625,0.125 3.671875,0.125 c 1.109375,0 1.734375,-1.40625 1.734375,-1.6875 0,-0.109375 -0.09375,-0.109375 -0.125,-0.109375 -0.09375,0 -0.125,0.046875 -0.140625,0.125 C 4.78125,-0.375 4.03125,-0.125 3.6875,-0.125 c -0.421875,0 -0.59375,-0.34375 -0.59375,-0.71875 0,-0.234375 0.0625,-0.46875 0.171875,-0.953125 z m 0,0"
             id="path19" />
        </g>
        <g
           id="use9"
           transform="translate(34.869553,9.4469995)">
          <path
             d="m 5.296875,-4.15625 c 0.046875,-0.15625 0.046875,-0.171875 0.046875,-0.25 0,-0.203125 -0.15625,-0.296875 -0.3125,-0.296875 -0.109375,0 -0.28125,0.0625 -0.390625,0.234375 C 4.625,-4.421875 4.53125,-4.078125 4.5,-3.875 4.421875,-3.59375 4.34375,-3.296875 4.28125,-3.015625 l -0.5,1.96875 C 3.734375,-0.890625 3.265625,-0.125 2.546875,-0.125 2,-0.125 1.875,-0.59375 1.875,-1 c 0,-0.5 0.1875,-1.1875 0.5625,-2.140625 0.171875,-0.453125 0.21875,-0.5625 0.21875,-0.78125 0,-0.5 -0.359375,-0.90625 -0.90625,-0.90625 -1.03125,0 -1.4375,1.59375 -1.4375,1.6875 0,0.109375 0.109375,0.109375 0.140625,0.109375 0.109375,0 0.109375,-0.015625 0.171875,-0.203125 0.296875,-1.015625 0.734375,-1.34375 1.09375,-1.34375 0.09375,0 0.28125,0 0.28125,0.34375 0,0.28125 -0.109375,0.5625 -0.1875,0.765625 -0.4375,1.15625 -0.640625,1.78125 -0.640625,2.296875 0,0.96875 0.6875,1.296875 1.34375,1.296875 0.421875,0 0.78125,-0.1875 1.09375,-0.5 C 3.46875,0.203125 3.34375,0.734375 2.90625,1.3125 2.625,1.671875 2.203125,2 1.703125,2 1.546875,2 1.0625,1.96875 0.875,1.53125 c 0.171875,0 0.3125,0 0.46875,-0.125 C 1.453125,1.3125 1.5625,1.171875 1.5625,0.953125 c 0,-0.328125 -0.296875,-0.375 -0.40625,-0.375 -0.25,0 -0.609375,0.171875 -0.609375,0.703125 0,0.546875 0.484375,0.953125 1.15625,0.953125 1.125,0 2.25,-0.984375 2.546875,-2.21875 z m 0,0"
             id="path21" />
        </g>
      </g>
    </g>
    <g
       inkscape:label=""
       transform="translate(51.463848,48.487734)"
       id="g31">
      <g
         fill="#000000"
         fill-opacity="1"
         id="g23"
         transform="matrix(0.352778,0,0,0.352778,-0.896011,-0.620712)">
        <g
           id="g22"
           transform="translate(1.993,9.4469995)">
          <path
             d="M 8.28125,-7.578125 C 8.28125,-7.609375 8.265625,-7.6875 8.171875,-7.6875 8.140625,-7.6875 8.125,-7.671875 8,-7.5625 L 7.234375,-6.71875 C 7.140625,-6.875 6.640625,-7.6875 5.4375,-7.6875 3,-7.6875 0.546875,-5.28125 0.546875,-2.75 c 0,1.734375 1.203125,2.984375 2.96875,2.984375 0.484375,0 0.984375,-0.09375 1.375,-0.25 0.546875,-0.21875 0.75,-0.453125 0.9375,-0.671875 0.109375,0.265625 0.390625,0.671875 0.5,0.671875 0.046875,0 0.078125,-0.03125 0.078125,-0.03125 0.015625,-0.03125 0.125,-0.4375 0.1875,-0.671875 L 6.796875,-1.5625 C 6.84375,-1.75 6.890625,-1.9375 6.9375,-2.109375 c 0.125,-0.5 0.125,-0.515625 0.75,-0.53125 0.0625,0 0.171875,-0.015625 0.171875,-0.21875 0,-0.078125 -0.046875,-0.125 -0.140625,-0.125 -0.25,0 -0.890625,0.046875 -1.140625,0.046875 -0.34375,0 -1.1875,-0.046875 -1.53125,-0.046875 -0.09375,0 -0.21875,0 -0.21875,0.21875 0,0.125 0.078125,0.125 0.3125,0.125 0.015625,0 0.328125,0 0.578125,0.015625 0.296875,0.046875 0.34375,0.078125 0.34375,0.21875 0,0.09375 -0.125,0.578125 -0.234375,0.984375 -0.296875,1.203125 -1.71875,1.328125 -2.09375,1.328125 -1.046875,0 -2.203125,-0.625 -2.203125,-2.296875 0,-0.328125 0.109375,-2.140625 1.265625,-3.546875 0.578125,-0.75 1.640625,-1.40625 2.71875,-1.40625 1.109375,0 1.765625,0.828125 1.765625,2.09375 0,0.4375 -0.046875,0.453125 -0.046875,0.5625 0,0.109375 0.125,0.109375 0.171875,0.109375 0.140625,0 0.140625,-0.03125 0.203125,-0.21875 z m 0,0"
             id="path22" />
        </g>
      </g>
      <g
         fill="#000000"
         fill-opacity="1"
         id="g25"
         transform="matrix(0.352778,0,0,0.352778,-0.896011,-0.620712)">
        <g
           id="g24"
           transform="translate(10.57,11.084)">
          <path
             d="m 2.25,-1.625 c 0.125,-0.125 0.453125,-0.390625 0.59375,-0.5 0.484375,-0.453125 0.953125,-0.890625 0.953125,-1.609375 0,-0.953125 -0.796875,-1.5625 -1.78125,-1.5625 -0.96875,0 -1.59375,0.71875 -1.59375,1.4375 0,0.390625 0.3125,0.4375 0.421875,0.4375 0.171875,0 0.421875,-0.109375 0.421875,-0.421875 0,-0.40625 -0.40625,-0.40625 -0.5,-0.40625 C 1,-4.84375 1.53125,-5.03125 1.921875,-5.03125 c 0.734375,0 1.125,0.625 1.125,1.296875 0,0.828125 -0.578125,1.4375 -1.53125,2.390625 l -1,1.046875 C 0.421875,-0.21875 0.421875,-0.203125 0.421875,0 H 3.5625 l 0.234375,-1.421875 h -0.25 C 3.53125,-1.265625 3.46875,-0.875 3.375,-0.71875 c -0.046875,0.0625 -0.65625,0.0625 -0.78125,0.0625 H 1.171875 Z m 0,0"
             id="path23" />
        </g>
      </g>
      <g
         fill="#000000"
         fill-opacity="1"
         id="g27"
         transform="matrix(0.352778,0,0,0.352778,-0.896011,-0.620712)">
        <g
           id="g26"
           transform="translate(17.726,9.4469995)">
          <path
             d="M 4.453125,-2.515625 H 7.5 c 0.15625,0 0.359375,0 0.359375,-0.203125 C 7.859375,-2.9375 7.65625,-2.9375 7.5,-2.9375 H 4.453125 V -6 c 0,-0.15625 0,-0.359375 -0.203125,-0.359375 -0.21875,0 -0.21875,0.203125 -0.21875,0.359375 v 3.0625 h -3.0625 c -0.15625,0 -0.359375,0 -0.359375,0.21875 0,0.203125 0.203125,0.203125 0.359375,0.203125 h 3.0625 v 3.0625 c 0,0.15625 0,0.359375 0.21875,0.359375 0.203125,0 0.203125,-0.203125 0.203125,-0.359375 z m 0,0"
             id="path25" />
        </g>
      </g>
      <g
         fill="#000000"
         fill-opacity="1"
         id="g30"
         transform="matrix(0.352778,0,0,0.352778,-0.896011,-0.620712)">
        <g
           id="g28"
           transform="translate(28.635,9.4469995)">
          <path
             d="m 3.640625,-3.296875 c 0.0625,-0.28125 0.3125,-1.28125 1.078125,-1.28125 0.0625,0 0.3125,0 0.546875,0.140625 C 4.96875,-4.390625 4.75,-4.109375 4.75,-3.84375 c 0,0.171875 0.109375,0.375 0.40625,0.375 0.25,0 0.59375,-0.203125 0.59375,-0.625 0,-0.578125 -0.640625,-0.734375 -1.015625,-0.734375 -0.640625,0 -1.015625,0.578125 -1.140625,0.84375 -0.28125,-0.734375 -0.875,-0.84375 -1.1875,-0.84375 -1.125,0 -1.75,1.421875 -1.75,1.6875 0,0.109375 0.109375,0.109375 0.125,0.109375 0.09375,0 0.125,-0.015625 0.140625,-0.125 0.375,-1.15625 1.09375,-1.421875 1.46875,-1.421875 0.203125,0 0.59375,0.09375 0.59375,0.734375 0,0.328125 -0.1875,1.0625 -0.59375,2.59375 -0.171875,0.671875 -0.5625,1.125 -1.03125,1.125 -0.078125,0 -0.328125,0 -0.546875,-0.140625 0.265625,-0.046875 0.5,-0.28125 0.5,-0.578125 0,-0.296875 -0.234375,-0.390625 -0.390625,-0.390625 -0.328125,0 -0.609375,0.28125 -0.609375,0.640625 0,0.5 0.546875,0.71875 1.03125,0.71875 0.71875,0 1.109375,-0.765625 1.140625,-0.828125 C 2.625,-0.3125 3.015625,0.125 3.671875,0.125 c 1.109375,0 1.734375,-1.40625 1.734375,-1.6875 0,-0.109375 -0.09375,-0.109375 -0.125,-0.109375 -0.09375,0 -0.125,0.046875 -0.140625,0.125 C 4.78125,-0.375 4.03125,-0.125 3.6875,-0.125 c -0.421875,0 -0.59375,-0.34375 -0.59375,-0.71875 0,-0.234375 0.0625,-0.46875 0.171875,-0.953125 z m 0,0"
             id="path27" />
        </g>
        <g
           id="g29"
           transform="translate(34.869553,9.4469995)">
          <path
             d="m 5.296875,-4.15625 c 0.046875,-0.15625 0.046875,-0.171875 0.046875,-0.25 0,-0.203125 -0.15625,-0.296875 -0.3125,-0.296875 -0.109375,0 -0.28125,0.0625 -0.390625,0.234375 C 4.625,-4.421875 4.53125,-4.078125 4.5,-3.875 4.421875,-3.59375 4.34375,-3.296875 4.28125,-3.015625 l -0.5,1.96875 C 3.734375,-0.890625 3.265625,-0.125 2.546875,-0.125 2,-0.125 1.875,-0.59375 1.875,-1 c 0,-0.5 0.1875,-1.1875 0.5625,-2.140625 0.171875,-0.453125 0.21875,-0.5625 0.21875,-0.78125 0,-0.5 -0.359375,-0.90625 -0.90625,-0.90625 -1.03125,0 -1.4375,1.59375 -1.4375,1.6875 0,0.109375 0.109375,0.109375 0.140625,0.109375 0.109375,0 0.109375,-0.015625 0.171875,-0.203125 0.296875,-1.015625 0.734375,-1.34375 1.09375,-1.34375 0.09375,0 0.28125,0 0.28125,0.34375 0,0.28125 -0.109375,0.5625 -0.1875,0.765625 -0.4375,1.15625 -0.640625,1.78125 -0.640625,2.296875 0,0.96875 0.6875,1.296875 1.34375,1.296875 0.421875,0 0.78125,-0.1875 1.09375,-0.5 C 3.46875,0.203125 3.34375,0.734375 2.90625,1.3125 2.625,1.671875 2.203125,2 1.703125,2 1.546875,2 1.0625,1.96875 0.875,1.53125 c 0.171875,0 0.3125,0 0.46875,-0.125 C 1.453125,1.3125 1.5625,1.171875 1.5625,0.953125 c 0,-0.328125 -0.296875,-0.375 -0.40625,-0.375 -0.25,0 -0.609375,0.171875 -0.609375,0.703125 0,0.546875 0.484375,0.953125 1.15625,0.953125 1.125,0 2.25,-0.984375 2.546875,-2.21875 z m 0,0"
             id="path28" />
        </g>
      </g>
    </g>
  </g>
</svg>
