<?xml version="1.0" encoding="UTF-8" standalone="no"?>
<!-- Created with Inkscape (http://www.inkscape.org/) -->

<svg
   width="38.721008mm"
   height="51.492462mm"
   viewBox="0 0 38.721008 51.492462"
   version="1.1"
   id="svg1"
   inkscape:version="1.3.2 (091e20e, 2023-11-25, custom)"
   sodipodi:docname="tetra_v.svg"
   xmlns:inkscape="http://www.inkscape.org/namespaces/inkscape"
   xmlns:sodipodi="http://sodipodi.sourceforge.net/DTD/sodipodi-0.dtd"
   xmlns="http://www.w3.org/2000/svg"
   xmlns:svg="http://www.w3.org/2000/svg">
  <sodipodi:namedview
     id="namedview1"
     pagecolor="#ffffff"
     bordercolor="#000000"
     borderopacity="0.25"
     inkscape:showpageshadow="2"
     inkscape:pageopacity="0.0"
     inkscape:pagecheckerboard="0"
     inkscape:deskcolor="#d1d1d1"
     inkscape:document-units="mm"
     inkscape:zoom="4.7118628"
     inkscape:cx="97.519818"
     inkscape:cy="92.638521"
     inkscape:window-width="1920"
     inkscape:window-height="1191"
     inkscape:window-x="-9"
     inkscape:window-y="-9"
     inkscape:window-maximized="1"
     inkscape:current-layer="layer1" />
  <defs
     id="defs1" />
  <g
     inkscape:label="Layer 1"
     inkscape:groupmode="layer"
     id="layer1"
     transform="translate(-54.7687, -146.315)">
    <path
       id="path2"
       d="m 79.436095,157.11685 c 0,2.93062 -2.37544,5.30694 -5.30644,5.30694 -2.931,0 -5.307244,-2.37632 -5.307244,-5.30694 0,-2.93098 2.376244,-5.30673 5.307244,-5.30673 2.931,0 5.30644,2.37575 5.30644,5.30673 z"
       style="fill:none;stroke:#000000;stroke-width:0.107326;stroke-linecap:butt;stroke-linejoin:miter;stroke-miterlimit:4;stroke-dasharray:none;stroke-opacity:1" />
    <path
       id="path12"
       d="m 74.981175,157.16412 c 0,0.40393 -0.32667,0.7306 -0.7306,0.7306 -0.40217,0 -0.73025,-0.32667 -0.73025,-0.7306 0,-0.40358 0.32808,-0.73025 0.73025,-0.73025 0.40393,0 0.7306,0.32667 0.7306,0.73025 z"
       style="fill:#6666ea;fill-opacity:1;fill-rule:nonzero;stroke:#000000;stroke-width:0.264583;stroke-linecap:butt;stroke-linejoin:miter;stroke-miterlimit:4;stroke-dasharray:none;stroke-opacity:1" />
    <path
       id="path13"
       d="m 74.892435,192.67118 c 0,0.40393 -0.32773,0.73025 -0.73025,0.73025 -0.40393,0 -0.73024,-0.32632 -0.73024,-0.73025 0,-0.40217 0.32631,-0.73025 0.73024,-0.73025 0.40252,0 0.73025,0.32808 0.73025,0.73025 z"
       style="fill:#6666ea;fill-opacity:1;fill-rule:nonzero;stroke:#000000;stroke-width:0.264583;stroke-linecap:butt;stroke-linejoin:miter;stroke-miterlimit:4;stroke-dasharray:none;stroke-opacity:1" />
    <path
       id="path15"
       d="m 61.050073,175.14253 c 0,0.40393 -0.326319,0.7306 -0.73025,0.7306 -0.402166,0 -0.73025,-0.32667 -0.73025,-0.7306 0,-0.40217 0.328084,-0.73025 0.73025,-0.73025 0.403931,0 0.73025,0.32808 0.73025,0.73025 z"
       style="fill:#6666ea;fill-opacity:1;fill-rule:nonzero;stroke:#000000;stroke-width:0.264583;stroke-linecap:butt;stroke-linejoin:miter;stroke-miterlimit:4;stroke-dasharray:none;stroke-opacity:1" />
    <path
       id="path12-8"
       d="m 89.021095,175.07237 c 0,0.40393 -0.32667,0.7306 -0.7306,0.7306 -0.40216,0 -0.73025,-0.32667 -0.73025,-0.7306 0,-0.40358 0.32809,-0.73025 0.73025,-0.73025 0.40393,0 0.7306,0.32667 0.7306,0.73025 z"
       style="fill:#6666ea;fill-opacity:1;fill-rule:nonzero;stroke:#000000;stroke-width:0.264583;stroke-linecap:butt;stroke-linejoin:miter;stroke-miterlimit:4;stroke-dasharray:none;stroke-opacity:1" />
    <path
       id="path2-0"
       d="m 65.436091,174.99644 c 0,2.93062 -2.37544,5.30694 -5.30644,5.30694 -2.931,0 -5.30724,-2.37632 -5.30724,-5.30694 0,-2.93098 2.37624,-5.30673 5.30724,-5.30673 2.931,0 5.30644,2.37575 5.30644,5.30673 z"
       style="fill:none;stroke:#000000;stroke-width:0.107326;stroke-linecap:butt;stroke-linejoin:miter;stroke-miterlimit:4;stroke-dasharray:none;stroke-opacity:1" />
    <path
       id="path2-3"
       d="m 79.436095,192.44644 c 0,2.93062 -2.37544,5.30694 -5.30644,5.30694 -2.931,0 -5.307244,-2.37632 -5.307244,-5.30694 0,-2.93098 2.376244,-5.30673 5.307244,-5.30673 2.931,0 5.30644,2.37575 5.30644,5.30673 z"
       style="fill:none;stroke:#000000;stroke-width:0.107326;stroke-linecap:butt;stroke-linejoin:miter;stroke-miterlimit:4;stroke-dasharray:none;stroke-opacity:1" />
    <path
       id="path2-7"
       d="m 93.436095,174.99644 c 0,2.93062 -2.37544,5.30694 -5.30644,5.30694 -2.931,0 -5.30724,-2.37632 -5.30724,-5.30694 0,-2.93098 2.37624,-5.30673 5.30724,-5.30673 2.931,0 5.30644,2.37575 5.30644,5.30673 z"
       style="fill:none;stroke:#000000;stroke-width:0.107326;stroke-linecap:butt;stroke-linejoin:miter;stroke-miterlimit:4;stroke-dasharray:none;stroke-opacity:1" />
    <path
       style="fill:#000000;stroke:#000000;stroke-width:0.308;stroke-dasharray:none;stroke-dashoffset:0;stroke-opacity:1"
       d="m 69.201364,163.69942 4.452681,-5.81631 m -12.705885,16.59706 4.488627,-5.86327 3.764577,-4.91748"
       id="path1"
       sodipodi:nodetypes="cccc" />
    <path
       style="fill:#000000;stroke:#000000;stroke-width:0.308;stroke-dasharray:none;stroke-dashoffset:0;stroke-opacity:1"
       d="m 87.704995,174.47582 -4.48862,-5.86327 m -8.33638,-10.83305 4.45268,5.81631 3.8837,5.01674"
       id="path1-1"
       sodipodi:nodetypes="cccc" />
    <path
       style="fill:#000000;stroke:#000000;stroke-width:0.308;stroke-dasharray:none;stroke-dashoffset:0;stroke-opacity:1"
       d="m 73.462595,192.38014 -4.508473,-5.90297 m -8.33638,-10.83305 4.45268,5.81631 3.8837,5.01674"
       id="path1-1-7"
       sodipodi:nodetypes="cccc" />
    <path
       style="fill:#000000;stroke:#000000;stroke-width:0.308;stroke-dasharray:none;stroke-dashoffset:0;stroke-opacity:1"
       d="m 74.857205,192.33506 4.58789,-5.82357 m 8.33638,-10.85291 -4.5718,5.93543 -3.76458,4.91748"
       id="path1-3"
       sodipodi:nodetypes="cccc" />
    <g
       inkscape:label=""
       transform="translate(72.372521,147.74628)"
       id="g1">
      <g
         fill="#000000"
         fill-opacity="1"
         id="g3"
         transform="matrix(0.352778,0,0,0.352778,-0.91806,-0.703395)">
        <g
           id="use2"
           transform="translate(1.993,9.4469995)">
          <path
             d="M 6.84375,-6.203125 C 7.390625,-7.0625 7.84375,-7.09375 8.25,-7.109375 8.375,-7.125 8.390625,-7.3125 8.390625,-7.3125 c 0,-0.09375 -0.0625,-0.140625 -0.140625,-0.140625 -0.28125,0 -0.609375,0.03125 -0.90625,0.03125 -0.359375,0 -0.71875,-0.03125 -1.078125,-0.03125 -0.0625,0 -0.203125,0 -0.203125,0.21875 0,0.109375 0.09375,0.125 0.171875,0.125 0.296875,0.015625 0.5,0.125 0.5,0.359375 0,0.15625 -0.15625,0.40625 -0.15625,0.40625 l -3.34375,5.328125 -0.75,-5.765625 c 0,-0.1875 0.25,-0.328125 0.75,-0.328125 0.15625,0 0.28125,0 0.28125,-0.21875 0,-0.09375 -0.09375,-0.125 -0.15625,-0.125 -0.4375,0 -0.90625,0.03125 -1.359375,0.03125 -0.1875,0 -0.390625,0 -0.59375,0 -0.203125,0 -0.40625,-0.03125 -0.59375,-0.03125 -0.078125,0 -0.203125,0 -0.203125,0.21875 0,0.125 0.09375,0.125 0.28125,0.125 0.609375,0 0.609375,0.09375 0.640625,0.375 l 0.875,6.71875 c 0.03125,0.21875 0.0625,0.25 0.21875,0.25 0.171875,0 0.203125,-0.046875 0.296875,-0.1875 z m 0,0"
             id="path4" />
        </g>
      </g>
      <g
         fill="#000000"
         fill-opacity="1"
         id="g4"
         transform="matrix(0.352778,0,0,0.352778,-0.91806,-0.703395)">
        <g
           id="use3"
           transform="translate(8.3559999,11.083)">
          <path
             d="m 2.5,-5.078125 c 0,-0.21875 -0.015625,-0.21875 -0.234375,-0.21875 -0.328125,0.3125 -0.75,0.5 -1.5,0.5 v 0.265625 c 0.21875,0 0.640625,0 1.109375,-0.203125 v 4.078125 c 0,0.296875 -0.03125,0.390625 -0.78125,0.390625 H 0.8125 V 0 c 0.328125,-0.03125 1.015625,-0.03125 1.375,-0.03125 0.359375,0 1.046875,0 1.375,0.03125 V -0.265625 H 3.28125 c -0.75,0 -0.78125,-0.09375 -0.78125,-0.390625 z m 0,0"
             id="path5" />
        </g>
      </g>
    </g>
    <g
       inkscape:label=""
       transform="translate(86.635281,165.32305)"
       id="g9">
      <g
         fill="#000000"
         fill-opacity="1"
         id="g6"
         transform="matrix(0.352778,0,0,0.352778,-0.91806,-0.703395)">
        <g
           id="g5"
           transform="translate(1.993,9.4469995)">
          <path
             d="M 6.84375,-6.203125 C 7.390625,-7.0625 7.84375,-7.09375 8.25,-7.109375 8.375,-7.125 8.390625,-7.3125 8.390625,-7.3125 c 0,-0.09375 -0.0625,-0.140625 -0.140625,-0.140625 -0.28125,0 -0.609375,0.03125 -0.90625,0.03125 -0.359375,0 -0.71875,-0.03125 -1.078125,-0.03125 -0.0625,0 -0.203125,0 -0.203125,0.21875 0,0.109375 0.09375,0.125 0.171875,0.125 0.296875,0.015625 0.5,0.125 0.5,0.359375 0,0.15625 -0.15625,0.40625 -0.15625,0.40625 l -3.34375,5.328125 -0.75,-5.765625 c 0,-0.1875 0.25,-0.328125 0.75,-0.328125 0.15625,0 0.28125,0 0.28125,-0.21875 0,-0.09375 -0.09375,-0.125 -0.15625,-0.125 -0.4375,0 -0.90625,0.03125 -1.359375,0.03125 -0.1875,0 -0.390625,0 -0.59375,0 -0.203125,0 -0.40625,-0.03125 -0.59375,-0.03125 -0.078125,0 -0.203125,0 -0.203125,0.21875 0,0.125 0.09375,0.125 0.28125,0.125 0.609375,0 0.609375,0.09375 0.640625,0.375 l 0.875,6.71875 c 0.03125,0.21875 0.0625,0.25 0.21875,0.25 0.171875,0 0.203125,-0.046875 0.296875,-0.1875 z m 0,0"
             id="path3" />
        </g>
      </g>
      <g
         fill="#000000"
         fill-opacity="1"
         id="g8"
         transform="matrix(0.352778,0,0,0.352778,-0.91806,-0.703395)">
        <g
           id="g7"
           transform="translate(8.3559999,11.083)">
          <path
             d="m 2.25,-1.625 c 0.125,-0.125 0.453125,-0.390625 0.59375,-0.5 0.484375,-0.453125 0.953125,-0.890625 0.953125,-1.609375 0,-0.953125 -0.796875,-1.5625 -1.78125,-1.5625 -0.96875,0 -1.59375,0.71875 -1.59375,1.4375 0,0.390625 0.3125,0.4375 0.421875,0.4375 0.171875,0 0.421875,-0.109375 0.421875,-0.421875 0,-0.40625 -0.40625,-0.40625 -0.5,-0.40625 C 1,-4.84375 1.53125,-5.03125 1.921875,-5.03125 c 0.734375,0 1.125,0.625 1.125,1.296875 0,0.828125 -0.578125,1.4375 -1.53125,2.390625 l -1,1.046875 C 0.421875,-0.21875 0.421875,-0.203125 0.421875,0 H 3.5625 l 0.234375,-1.421875 h -0.25 C 3.53125,-1.265625 3.46875,-0.875 3.375,-0.71875 c -0.046875,0.0625 -0.65625,0.0625 -0.78125,0.0625 H 1.171875 Z m 0,0"
             id="path6" />
        </g>
      </g>
    </g>
    <g
       inkscape:label=""
       transform="translate(72.540979,183.29188)"
       id="g14">
      <g
         fill="#000000"
         fill-opacity="1"
         id="g11"
         transform="matrix(0.352778,0,0,0.352778,-0.91806,-0.703395)">
        <g
           id="g10"
           transform="translate(1.993,9.4469995)">
          <path
             d="M 6.84375,-6.203125 C 7.390625,-7.0625 7.84375,-7.09375 8.25,-7.109375 8.375,-7.125 8.390625,-7.3125 8.390625,-7.3125 c 0,-0.09375 -0.0625,-0.140625 -0.140625,-0.140625 -0.28125,0 -0.609375,0.03125 -0.90625,0.03125 -0.359375,0 -0.71875,-0.03125 -1.078125,-0.03125 -0.0625,0 -0.203125,0 -0.203125,0.21875 0,0.109375 0.09375,0.125 0.171875,0.125 0.296875,0.015625 0.5,0.125 0.5,0.359375 0,0.15625 -0.15625,0.40625 -0.15625,0.40625 l -3.34375,5.328125 -0.75,-5.765625 c 0,-0.1875 0.25,-0.328125 0.75,-0.328125 0.15625,0 0.28125,0 0.28125,-0.21875 0,-0.09375 -0.09375,-0.125 -0.15625,-0.125 -0.4375,0 -0.90625,0.03125 -1.359375,0.03125 -0.1875,0 -0.390625,0 -0.59375,0 -0.203125,0 -0.40625,-0.03125 -0.59375,-0.03125 -0.078125,0 -0.203125,0 -0.203125,0.21875 0,0.125 0.09375,0.125 0.28125,0.125 0.609375,0 0.609375,0.09375 0.640625,0.375 l 0.875,6.71875 c 0.03125,0.21875 0.0625,0.25 0.21875,0.25 0.171875,0 0.203125,-0.046875 0.296875,-0.1875 z m 0,0"
             id="path9" />
        </g>
      </g>
      <g
         fill="#000000"
         fill-opacity="1"
         id="g13"
         transform="matrix(0.352778,0,0,0.352778,-0.91806,-0.703395)">
        <g
           id="g12"
           transform="translate(8.3559999,11.083)">
          <path
             d="m 2.015625,-2.65625 c 0.625,0 1.03125,0.453125 1.03125,1.296875 0,1 -0.5625,1.28125 -0.984375,1.28125 -0.4375,0 -1.046875,-0.15625 -1.328125,-0.578125 0.296875,0 0.5,-0.1875 0.5,-0.4375 0,-0.265625 -0.1875,-0.4375 -0.453125,-0.4375 -0.203125,0 -0.4375,0.125 -0.4375,0.453125 0,0.75 0.8125,1.25 1.734375,1.25 C 3.125,0.171875 3.875,-0.5625 3.875,-1.359375 3.875,-2.03125 3.34375,-2.625 2.53125,-2.8125 c 0.625,-0.21875 1.109375,-0.75 1.109375,-1.390625 0,-0.640625 -0.71875,-1.09375 -1.546875,-1.09375 -0.859375,0 -1.5,0.453125 -1.5,1.0625 0,0.296875 0.1875,0.421875 0.40625,0.421875 0.25,0 0.40625,-0.171875 0.40625,-0.40625 0,-0.296875 -0.265625,-0.40625 -0.4375,-0.40625 0.34375,-0.4375 0.953125,-0.46875 1.09375,-0.46875 0.203125,0 0.8125,0.0625 0.8125,0.890625 0,0.546875 -0.234375,0.890625 -0.34375,1.015625 -0.234375,0.25 -0.421875,0.265625 -0.90625,0.296875 -0.15625,0 -0.21875,0.015625 -0.21875,0.125 0,0.109375 0.078125,0.109375 0.21875,0.109375 z m 0,0"
             id="path11" />
        </g>
      </g>
    </g>
    <g
       inkscape:label=""
       transform="translate(58.446677,165.32305)"
       id="g19">
      <g
         fill="#000000"
         fill-opacity="1"
         id="g16"
         transform="matrix(0.352778,0,0,0.352778,-0.91806,-0.703395)">
        <g
           id="g15"
           transform="translate(1.993,9.4469995)">
          <path
             d="M 6.84375,-6.203125 C 7.390625,-7.0625 7.84375,-7.09375 8.25,-7.109375 8.375,-7.125 8.390625,-7.3125 8.390625,-7.3125 c 0,-0.09375 -0.0625,-0.140625 -0.140625,-0.140625 -0.28125,0 -0.609375,0.03125 -0.90625,0.03125 -0.359375,0 -0.71875,-0.03125 -1.078125,-0.03125 -0.0625,0 -0.203125,0 -0.203125,0.21875 0,0.109375 0.09375,0.125 0.171875,0.125 0.296875,0.015625 0.5,0.125 0.5,0.359375 0,0.15625 -0.15625,0.40625 -0.15625,0.40625 l -3.34375,5.328125 -0.75,-5.765625 c 0,-0.1875 0.25,-0.328125 0.75,-0.328125 0.15625,0 0.28125,0 0.28125,-0.21875 0,-0.09375 -0.09375,-0.125 -0.15625,-0.125 -0.4375,0 -0.90625,0.03125 -1.359375,0.03125 -0.1875,0 -0.390625,0 -0.59375,0 -0.203125,0 -0.40625,-0.03125 -0.59375,-0.03125 -0.078125,0 -0.203125,0 -0.203125,0.21875 0,0.125 0.09375,0.125 0.28125,0.125 0.609375,0 0.609375,0.09375 0.640625,0.375 l 0.875,6.71875 c 0.03125,0.21875 0.0625,0.25 0.21875,0.25 0.171875,0 0.203125,-0.046875 0.296875,-0.1875 z m 0,0"
             id="path14" />
        </g>
      </g>
      <g
         fill="#000000"
         fill-opacity="1"
         id="g18"
         transform="matrix(0.352778,0,0,0.352778,-0.91806,-0.703395)">
        <g
           id="g17"
           transform="translate(8.3559999,11.083)">
          <path
             d="m 3.140625,-5.15625 c 0,-0.15625 0,-0.21875 -0.171875,-0.21875 -0.09375,0 -0.109375,0 -0.1875,0.109375 L 0.234375,-1.5625 v 0.25 h 2.25 v 0.671875 c 0,0.296875 -0.015625,0.375 -0.640625,0.375 H 1.671875 V 0 c 0.671875,-0.03125 0.6875,-0.03125 1.140625,-0.03125 0.453125,0 0.46875,0 1.140625,0.03125 V -0.265625 H 3.78125 c -0.625,0 -0.640625,-0.078125 -0.640625,-0.375 V -1.3125 h 0.84375 v -0.25 h -0.84375 z m -0.59375,0.640625 V -1.5625 h -2.03125 z m 0,0"
             id="path16" />
        </g>
      </g>
    </g>
  </g>
</svg>
