<?xml version="1.0" encoding="UTF-8" standalone="no"?>
<!-- Created with Inkscape (http://www.inkscape.org/) -->

<svg
   width="53.356377mm"
   height="45.428379mm"
   viewBox="0 0 53.356377 45.428379"
   version="1.1"
   id="svg1"
   inkscape:version="1.3.2 (091e20e, 2023-11-25, custom)"
   sodipodi:docname="U_G-x.svg"
   xmlns:inkscape="http://www.inkscape.org/namespaces/inkscape"
   xmlns:sodipodi="http://sodipodi.sourceforge.net/DTD/sodipodi-0.dtd"
   xmlns="http://www.w3.org/2000/svg"
   xmlns:svg="http://www.w3.org/2000/svg">
  <sodipodi:namedview
     id="namedview1"
     pagecolor="#ffffff"
     bordercolor="#000000"
     borderopacity="0.25"
     inkscape:showpageshadow="2"
     inkscape:pageopacity="0.0"
     inkscape:pagecheckerboard="0"
     inkscape:deskcolor="#d1d1d1"
     inkscape:document-units="mm"
     inkscape:zoom="2.3559314"
     inkscape:cx="141.5576"
     inkscape:cy="96.564782"
     inkscape:window-width="1920"
     inkscape:window-height="1191"
     inkscape:window-x="-9"
     inkscape:window-y="-9"
     inkscape:window-maximized="1"
     inkscape:current-layer="layer1" />
  <defs
     id="defs1" />
  <g
     inkscape:label="Layer 1"
     inkscape:groupmode="layer"
     id="layer1"
     transform="translate(-61.510067,-14.543551)">
    <path
       id="path1"
       d="m 107.40358,40.234364 c 0,6.729017 -5.45537,12.183286 -12.183749,12.183286 -6.72838,0 -12.183169,-5.454269 -12.183169,-12.183286 0,-6.729019 5.454789,-12.183636 12.183169,-12.183636 6.728379,0 12.183749,5.454617 12.183749,12.183636 z"
       style="fill:none;stroke:#000000;stroke-width:0.24638;stroke-linecap:butt;stroke-linejoin:miter;stroke-miterlimit:4;stroke-dasharray:none;stroke-opacity:1" />
    <path
       id="path14-3-6"
       d="m 96.239678,33.120244 c 0,0.662804 -0.537767,1.198835 -1.198257,1.198835 -0.662229,0 -1.198257,-0.536031 -1.198257,-1.198835 0,-0.659911 0.536028,-1.198258 1.198257,-1.198258 0.66049,0 1.198257,0.538347 1.198257,1.198258 z"
       style="fill:#6666ea;fill-opacity:1;fill-rule:nonzero;stroke:#000000;stroke-width:0.434151;stroke-linecap:butt;stroke-linejoin:miter;stroke-miterlimit:4;stroke-dasharray:none;stroke-opacity:1" />
    <path
       id="path14-3-9"
       d="m 96.282913,47.66401 c 0,0.662804 -0.537767,1.198836 -1.198257,1.198836 -0.66223,0 -1.198259,-0.536032 -1.198259,-1.198836 0,-0.659909 0.536029,-1.198257 1.198259,-1.198257 0.66049,0 1.198257,0.538348 1.198257,1.198257 z"
       style="fill:#6666ea;fill-opacity:1;fill-rule:nonzero;stroke:#000000;stroke-width:0.434151;stroke-linecap:butt;stroke-linejoin:miter;stroke-miterlimit:4;stroke-dasharray:none;stroke-opacity:1" />
    <path
       id="path14-3-0"
       d="m 89.770643,40.631121 c 0,0.662803 -0.537767,1.198836 -1.198257,1.198836 -0.66223,0 -1.198259,-0.536033 -1.198259,-1.198836 0,-0.65991 0.536029,-1.198257 1.198259,-1.198257 0.66049,0 1.198257,0.538347 1.198257,1.198257 z"
       style="fill:#6666ea;fill-opacity:1;fill-rule:nonzero;stroke:#000000;stroke-width:0.434151;stroke-linecap:butt;stroke-linejoin:miter;stroke-miterlimit:4;stroke-dasharray:none;stroke-opacity:1" />
    <path
       id="path14-3-0-3"
       d="m 68.063078,40.631397 c 0,0.662803 -0.537768,1.198834 -1.198257,1.198834 -0.662229,0 -1.198258,-0.536031 -1.198258,-1.198834 0,-0.659911 0.536029,-1.198259 1.198258,-1.198259 0.660489,0 1.198257,0.538348 1.198257,1.198259 z"
       style="fill:#6666ea;fill-opacity:1;fill-rule:nonzero;stroke:#000000;stroke-width:0.434151;stroke-linecap:butt;stroke-linejoin:miter;stroke-miterlimit:4;stroke-dasharray:none;stroke-opacity:1" />
    <path
       style="fill:none;stroke:#000000;stroke-width:0.505392;stroke-dasharray:1.01078, 1.01078;stroke-dashoffset:0"
       d="m 94.220913,34.114161 -4.69101,5.537994"
       id="path4" />
    <path
       style="fill:none;stroke:#000000;stroke-width:0.505392;stroke-dasharray:1.01078, 1.01078;stroke-dashoffset:0"
       d="m 89.269294,41.671892 4.821312,4.82131"
       id="path5" />
    <path
       style="fill:none;stroke:#000000;stroke-width:0.505392;stroke-dasharray:1.01078, 1.01078;stroke-dashoffset:0"
       d="M 87.37986,40.6946 H 68.094617 l 25.474768,-7.753191"
       id="path12" />
    <path
       style="fill:none;stroke:#000000;stroke-width:0.505392;stroke-dasharray:1.01078, 1.01078;stroke-dashoffset:0"
       d="M 93.764841,47.796261 68.094617,40.6946"
       id="path13" />
    <path
       style="fill:none;stroke:#000000;stroke-width:0.505392;stroke-dasharray:1.01078, 1.01078;stroke-dashoffset:0"
       d="m 96.370956,32.941409 c 22.169854,5.852317 17.132364,10.625927 0,14.920006"
       id="path18"
       sodipodi:nodetypes="cc" />
    <rect
       style="fill:none;stroke:#000000;stroke-width:0.505392;stroke-dasharray:none;stroke-dashoffset:0"
       id="rect18"
       width="37.918968"
       height="40.720539"
       x="76.694778"
       y="18.998695" />
    <g
       inkscape:label=""
       transform="translate(61.510066,39.694951)"
       id="g19">
      <g
         fill="#000000"
         fill-opacity="1"
         id="g2"
         transform="matrix(0.352778,0,0,0.352778,-0.813329,-0.656475)">
        <g
           id="use1"
           transform="translate(1.993,6.6890001)">
          <path
             d="m 3.640625,-3.296875 c 0.0625,-0.28125 0.3125,-1.28125 1.078125,-1.28125 0.0625,0 0.3125,0 0.546875,0.140625 C 4.96875,-4.390625 4.75,-4.109375 4.75,-3.84375 c 0,0.171875 0.109375,0.375 0.40625,0.375 0.25,0 0.59375,-0.203125 0.59375,-0.625 0,-0.578125 -0.640625,-0.734375 -1.015625,-0.734375 -0.640625,0 -1.015625,0.578125 -1.140625,0.84375 -0.28125,-0.734375 -0.875,-0.84375 -1.1875,-0.84375 -1.125,0 -1.75,1.421875 -1.75,1.6875 0,0.109375 0.109375,0.109375 0.125,0.109375 0.09375,0 0.125,-0.015625 0.140625,-0.125 0.375,-1.15625 1.09375,-1.421875 1.46875,-1.421875 0.203125,0 0.59375,0.09375 0.59375,0.734375 0,0.328125 -0.1875,1.0625 -0.59375,2.59375 -0.171875,0.671875 -0.5625,1.125 -1.03125,1.125 -0.078125,0 -0.328125,0 -0.546875,-0.140625 0.265625,-0.046875 0.5,-0.28125 0.5,-0.578125 0,-0.296875 -0.234375,-0.390625 -0.390625,-0.390625 -0.328125,0 -0.609375,0.28125 -0.609375,0.640625 0,0.5 0.546875,0.71875 1.03125,0.71875 0.71875,0 1.109375,-0.765625 1.140625,-0.828125 C 2.625,-0.3125 3.015625,0.125 3.671875,0.125 c 1.109375,0 1.734375,-1.40625 1.734375,-1.6875 0,-0.109375 -0.09375,-0.109375 -0.125,-0.109375 -0.09375,0 -0.125,0.046875 -0.140625,0.125 C 4.78125,-0.375 4.03125,-0.125 3.6875,-0.125 c -0.421875,0 -0.59375,-0.34375 -0.59375,-0.71875 0,-0.234375 0.0625,-0.46875 0.171875,-0.953125 z m 0,0"
             id="path19" />
        </g>
      </g>
    </g>
    <g
       inkscape:label=""
       transform="translate(96.18937,34.983095)"
       id="g32">
      <g
         fill="#000000"
         fill-opacity="1"
         id="g3"
         transform="matrix(0.352778,0,0,0.352778,-0.813329,-0.656475)">
        <g
           id="use2"
           transform="translate(1.993,6.6890001)">
          <path
             d="m 5.109375,-4.0625 c 0,-0.578125 -0.28125,-0.765625 -0.484375,-0.765625 -0.265625,0 -0.53125,0.296875 -0.53125,0.53125 0,0.140625 0.046875,0.203125 0.171875,0.328125 0.234375,0.21875 0.375,0.5 0.375,0.890625 0,0.453125 -0.671875,2.953125 -1.953125,2.953125 -0.546875,0 -0.796875,-0.375 -0.796875,-0.9375 0,-0.609375 0.296875,-1.40625 0.625,-2.3125 0.078125,-0.1875 0.140625,-0.34375 0.140625,-0.546875 0,-0.5 -0.359375,-0.90625 -0.90625,-0.90625 -1.015625,0 -1.4375,1.59375 -1.4375,1.6875 0,0.109375 0.109375,0.109375 0.140625,0.109375 0.109375,0 0.109375,-0.015625 0.171875,-0.203125 0.3125,-1.09375 0.78125,-1.34375 1.09375,-1.34375 0.09375,0 0.28125,0 0.28125,0.34375 0,0.28125 -0.109375,0.5625 -0.1875,0.765625 -0.484375,1.265625 -0.625,1.765625 -0.625,2.234375 0,1.1875 0.96875,1.359375 1.46875,1.359375 1.828125,0 2.453125,-3.609375 2.453125,-4.1875 z m 0,0"
             id="path21" />
        </g>
      </g>
      <g
         fill="#000000"
         fill-opacity="1"
         id="g4"
         transform="matrix(0.352778,0,0,0.352778,-0.813329,-0.656475)">
        <g
           id="use3"
           transform="translate(7.2800002,8.3249998)">
          <path
             d="m 2.5,-5.078125 c 0,-0.21875 -0.015625,-0.21875 -0.234375,-0.21875 -0.328125,0.3125 -0.75,0.5 -1.5,0.5 v 0.265625 c 0.21875,0 0.640625,0 1.109375,-0.203125 v 4.078125 c 0,0.296875 -0.03125,0.390625 -0.78125,0.390625 H 0.8125 V 0 c 0.328125,-0.03125 1.015625,-0.03125 1.375,-0.03125 0.359375,0 1.046875,0 1.375,0.03125 V -0.265625 H 3.28125 c -0.75,0 -0.78125,-0.09375 -0.78125,-0.390625 z m 0,0"
             id="path24" />
        </g>
      </g>
    </g>
    <g
       inkscape:label=""
       transform="translate(92.034077,39.699914)"
       id="g37">
      <g
         fill="#000000"
         fill-opacity="1"
         id="g34"
         transform="matrix(0.352778,0,0,0.352778,-0.813329,-0.656475)">
        <g
           id="g33"
           transform="translate(1.993,6.6890001)">
          <path
             d="m 5.109375,-4.0625 c 0,-0.578125 -0.28125,-0.765625 -0.484375,-0.765625 -0.265625,0 -0.53125,0.296875 -0.53125,0.53125 0,0.140625 0.046875,0.203125 0.171875,0.328125 0.234375,0.21875 0.375,0.5 0.375,0.890625 0,0.453125 -0.671875,2.953125 -1.953125,2.953125 -0.546875,0 -0.796875,-0.375 -0.796875,-0.9375 0,-0.609375 0.296875,-1.40625 0.625,-2.3125 0.078125,-0.1875 0.140625,-0.34375 0.140625,-0.546875 0,-0.5 -0.359375,-0.90625 -0.90625,-0.90625 -1.015625,0 -1.4375,1.59375 -1.4375,1.6875 0,0.109375 0.109375,0.109375 0.140625,0.109375 0.109375,0 0.109375,-0.015625 0.171875,-0.203125 0.3125,-1.09375 0.78125,-1.34375 1.09375,-1.34375 0.09375,0 0.28125,0 0.28125,0.34375 0,0.28125 -0.109375,0.5625 -0.1875,0.765625 -0.484375,1.265625 -0.625,1.765625 -0.625,2.234375 0,1.1875 0.96875,1.359375 1.46875,1.359375 1.828125,0 2.453125,-3.609375 2.453125,-4.1875 z m 0,0"
             id="path32" />
        </g>
      </g>
      <g
         fill="#000000"
         fill-opacity="1"
         id="g36"
         transform="matrix(0.352778,0,0,0.352778,-0.813329,-0.656475)">
        <g
           id="g35"
           transform="translate(7.2800002,8.3249998)">
          <path
             d="m 2.25,-1.625 c 0.125,-0.125 0.453125,-0.390625 0.59375,-0.5 0.484375,-0.453125 0.953125,-0.890625 0.953125,-1.609375 0,-0.953125 -0.796875,-1.5625 -1.78125,-1.5625 -0.96875,0 -1.59375,0.71875 -1.59375,1.4375 0,0.390625 0.3125,0.4375 0.421875,0.4375 0.171875,0 0.421875,-0.109375 0.421875,-0.421875 0,-0.40625 -0.40625,-0.40625 -0.5,-0.40625 C 1,-4.84375 1.53125,-5.03125 1.921875,-5.03125 c 0.734375,0 1.125,0.625 1.125,1.296875 0,0.828125 -0.578125,1.4375 -1.53125,2.390625 l -1,1.046875 C 0.421875,-0.21875 0.421875,-0.203125 0.421875,0 H 3.5625 l 0.234375,-1.421875 h -0.25 C 3.53125,-1.265625 3.46875,-0.875 3.375,-0.71875 c -0.046875,0.0625 -0.65625,0.0625 -0.78125,0.0625 H 1.171875 Z m 0,0"
             id="path34" />
        </g>
      </g>
    </g>
    <g
       inkscape:label=""
       transform="translate(96.638591,43.29368)"
       id="g42">
      <g
         fill="#000000"
         fill-opacity="1"
         id="g39"
         transform="matrix(0.352778,0,0,0.352778,-0.813329,-0.656475)">
        <g
           id="g38"
           transform="translate(1.993,6.6890001)">
          <path
             d="m 5.109375,-4.0625 c 0,-0.578125 -0.28125,-0.765625 -0.484375,-0.765625 -0.265625,0 -0.53125,0.296875 -0.53125,0.53125 0,0.140625 0.046875,0.203125 0.171875,0.328125 0.234375,0.21875 0.375,0.5 0.375,0.890625 0,0.453125 -0.671875,2.953125 -1.953125,2.953125 -0.546875,0 -0.796875,-0.375 -0.796875,-0.9375 0,-0.609375 0.296875,-1.40625 0.625,-2.3125 0.078125,-0.1875 0.140625,-0.34375 0.140625,-0.546875 0,-0.5 -0.359375,-0.90625 -0.90625,-0.90625 -1.015625,0 -1.4375,1.59375 -1.4375,1.6875 0,0.109375 0.109375,0.109375 0.140625,0.109375 0.109375,0 0.109375,-0.015625 0.171875,-0.203125 0.3125,-1.09375 0.78125,-1.34375 1.09375,-1.34375 0.09375,0 0.28125,0 0.28125,0.34375 0,0.28125 -0.109375,0.5625 -0.1875,0.765625 -0.484375,1.265625 -0.625,1.765625 -0.625,2.234375 0,1.1875 0.96875,1.359375 1.46875,1.359375 1.828125,0 2.453125,-3.609375 2.453125,-4.1875 z m 0,0"
             id="path37" />
        </g>
      </g>
      <g
         fill="#000000"
         fill-opacity="1"
         id="g41"
         transform="matrix(0.352778,0,0,0.352778,-0.813329,-0.656475)">
        <g
           id="g40"
           transform="translate(7.2800002,8.3249998)">
          <path
             d="m 2.015625,-2.65625 c 0.625,0 1.03125,0.453125 1.03125,1.296875 0,1 -0.5625,1.28125 -0.984375,1.28125 -0.4375,0 -1.046875,-0.15625 -1.328125,-0.578125 0.296875,0 0.5,-0.1875 0.5,-0.4375 0,-0.265625 -0.1875,-0.4375 -0.453125,-0.4375 -0.203125,0 -0.4375,0.125 -0.4375,0.453125 0,0.75 0.8125,1.25 1.734375,1.25 C 3.125,0.171875 3.875,-0.5625 3.875,-1.359375 3.875,-2.03125 3.34375,-2.625 2.53125,-2.8125 c 0.625,-0.21875 1.109375,-0.75 1.109375,-1.390625 0,-0.640625 -0.71875,-1.09375 -1.546875,-1.09375 -0.859375,0 -1.5,0.453125 -1.5,1.0625 0,0.296875 0.1875,0.421875 0.40625,0.421875 0.25,0 0.40625,-0.171875 0.40625,-0.40625 0,-0.296875 -0.265625,-0.40625 -0.4375,-0.40625 0.34375,-0.4375 0.953125,-0.46875 1.09375,-0.46875 0.203125,0 0.8125,0.0625 0.8125,0.890625 0,0.546875 -0.234375,0.890625 -0.34375,1.015625 -0.234375,0.25 -0.421875,0.265625 -0.90625,0.296875 -0.15625,0 -0.21875,0.015625 -0.21875,0.125 0,0.109375 0.078125,0.109375 0.21875,0.109375 z m 0,0"
             id="path39" />
        </g>
      </g>
    </g>
    <g
       inkscape:label=""
       transform="translate(90.3495,14.54355)"
       id="g45">
      <g
         fill="#000000"
         fill-opacity="1"
         id="g44"
         transform="matrix(0.352778,0,0,0.352778,-0.896011,-0.620712)">
        <g
           id="g43"
           transform="translate(1.993,9.4469995)">
          <path
             d="M 8.28125,-7.578125 C 8.28125,-7.609375 8.265625,-7.6875 8.171875,-7.6875 8.140625,-7.6875 8.125,-7.671875 8,-7.5625 L 7.234375,-6.71875 C 7.140625,-6.875 6.640625,-7.6875 5.4375,-7.6875 3,-7.6875 0.546875,-5.28125 0.546875,-2.75 c 0,1.734375 1.203125,2.984375 2.96875,2.984375 0.484375,0 0.984375,-0.09375 1.375,-0.25 0.546875,-0.21875 0.75,-0.453125 0.9375,-0.671875 0.109375,0.265625 0.390625,0.671875 0.5,0.671875 0.046875,0 0.078125,-0.03125 0.078125,-0.03125 0.015625,-0.03125 0.125,-0.4375 0.1875,-0.671875 L 6.796875,-1.5625 C 6.84375,-1.75 6.890625,-1.9375 6.9375,-2.109375 c 0.125,-0.5 0.125,-0.515625 0.75,-0.53125 0.0625,0 0.171875,-0.015625 0.171875,-0.21875 0,-0.078125 -0.046875,-0.125 -0.140625,-0.125 -0.25,0 -0.890625,0.046875 -1.140625,0.046875 -0.34375,0 -1.1875,-0.046875 -1.53125,-0.046875 -0.09375,0 -0.21875,0 -0.21875,0.21875 0,0.125 0.078125,0.125 0.3125,0.125 0.015625,0 0.328125,0 0.578125,0.015625 0.296875,0.046875 0.34375,0.078125 0.34375,0.21875 0,0.09375 -0.125,0.578125 -0.234375,0.984375 -0.296875,1.203125 -1.71875,1.328125 -2.09375,1.328125 -1.046875,0 -2.203125,-0.625 -2.203125,-2.296875 0,-0.328125 0.109375,-2.140625 1.265625,-3.546875 0.578125,-0.75 1.640625,-1.40625 2.71875,-1.40625 1.109375,0 1.765625,0.828125 1.765625,2.09375 0,0.4375 -0.046875,0.453125 -0.046875,0.5625 0,0.109375 0.125,0.109375 0.171875,0.109375 0.140625,0 0.140625,-0.03125 0.203125,-0.21875 z m 0,0"
             id="path42" />
        </g>
      </g>
      <g
         fill="#000000"
         fill-opacity="1"
         id="g5"
         transform="matrix(0.352778,0,0,0.352778,-0.896011,-0.620712)">
        <g
           id="use4"
           transform="translate(12.994,9.4469995)">
          <path
             d="m 7.1875,-2.515625 c 0.1875,0 0.375,0 0.375,-0.203125 0,-0.21875 -0.1875,-0.21875 -0.375,-0.21875 H 1.28125 c -0.1875,0 -0.375,0 -0.375,0.21875 0,0.203125 0.1875,0.203125 0.375,0.203125 z m 0,0"
             id="path44" />
        </g>
      </g>
      <g
         fill="#000000"
         fill-opacity="1"
         id="g6"
         transform="matrix(0.352778,0,0,0.352778,-0.896011,-0.620712)">
        <g
           id="use5"
           transform="translate(23.903,9.4469995)">
          <path
             d="m 3.640625,-3.296875 c 0.0625,-0.28125 0.3125,-1.28125 1.078125,-1.28125 0.0625,0 0.3125,0 0.546875,0.140625 C 4.96875,-4.390625 4.75,-4.109375 4.75,-3.84375 c 0,0.171875 0.109375,0.375 0.40625,0.375 0.25,0 0.59375,-0.203125 0.59375,-0.625 0,-0.578125 -0.640625,-0.734375 -1.015625,-0.734375 -0.640625,0 -1.015625,0.578125 -1.140625,0.84375 -0.28125,-0.734375 -0.875,-0.84375 -1.1875,-0.84375 -1.125,0 -1.75,1.421875 -1.75,1.6875 0,0.109375 0.109375,0.109375 0.125,0.109375 0.09375,0 0.125,-0.015625 0.140625,-0.125 0.375,-1.15625 1.09375,-1.421875 1.46875,-1.421875 0.203125,0 0.59375,0.09375 0.59375,0.734375 0,0.328125 -0.1875,1.0625 -0.59375,2.59375 -0.171875,0.671875 -0.5625,1.125 -1.03125,1.125 -0.078125,0 -0.328125,0 -0.546875,-0.140625 0.265625,-0.046875 0.5,-0.28125 0.5,-0.578125 0,-0.296875 -0.234375,-0.390625 -0.390625,-0.390625 -0.328125,0 -0.609375,0.28125 -0.609375,0.640625 0,0.5 0.546875,0.71875 1.03125,0.71875 0.71875,0 1.109375,-0.765625 1.140625,-0.828125 C 2.625,-0.3125 3.015625,0.125 3.671875,0.125 c 1.109375,0 1.734375,-1.40625 1.734375,-1.6875 0,-0.109375 -0.09375,-0.109375 -0.125,-0.109375 -0.09375,0 -0.125,0.046875 -0.140625,0.125 C 4.78125,-0.375 4.03125,-0.125 3.6875,-0.125 c -0.421875,0 -0.59375,-0.34375 -0.59375,-0.71875 0,-0.234375 0.0625,-0.46875 0.171875,-0.953125 z m 0,0"
             id="path45" />
        </g>
      </g>
    </g>
    <g
       inkscape:label=""
       transform="translate(101.35541,25.100204)"
       id="g48">
      <g
         fill="#000000"
         fill-opacity="1"
         id="g47"
         transform="matrix(0.352778,0,0,0.352778,-0.962157,-0.703395)">
        <g
           id="g46"
           transform="translate(1.993,9.4469995)">
          <path
             d="m 6.921875,-6.296875 c 0.109375,-0.453125 0.3125,-0.78125 1.1875,-0.8125 0.046875,0 0.171875,-0.015625 0.171875,-0.21875 0,-0.015625 0,-0.125 -0.140625,-0.125 -0.359375,0 -0.734375,0.03125 -1.109375,0.03125 -0.375,0 -0.765625,-0.03125 -1.125,-0.03125 -0.078125,0 -0.203125,0 -0.203125,0.21875 0,0.125 0.109375,0.125 0.203125,0.125 0.609375,0.015625 0.734375,0.234375 0.734375,0.484375 0,0.03125 -0.015625,0.1875 -0.03125,0.21875 L 5.625,-2.515625 C 5.25,-1.046875 4,-0.09375 2.90625,-0.09375 c -0.734375,0 -1.328125,-0.484375 -1.328125,-1.421875 0,-0.015625 0,-0.375 0.125,-0.84375 l 1.0625,-4.25 c 0.09375,-0.390625 0.109375,-0.5 0.90625,-0.5 0.28125,0 0.375,0 0.375,-0.21875 0,-0.125 -0.125,-0.125 -0.15625,-0.125 -0.296875,0 -1.09375,0.03125 -1.390625,0.03125 -0.3125,0 -1.09375,-0.03125 -1.40625,-0.03125 -0.09375,0 -0.203125,0 -0.203125,0.21875 0,0.125 0.09375,0.125 0.296875,0.125 0.015625,0 0.234375,0 0.421875,0.015625 0.1875,0.03125 0.28125,0.03125 0.28125,0.171875 0,0.078125 -0.109375,0.53125 -0.171875,0.78125 l -0.25,0.953125 c -0.09375,0.4375 -0.625,2.5 -0.65625,2.703125 -0.078125,0.296875 -0.078125,0.46875 -0.078125,0.625 0,1.328125 0.984375,2.09375 2.140625,2.09375 C 4.25,0.234375 5.59375,-1 5.953125,-2.4375 Z m 0,0"
             id="path46" />
        </g>
      </g>
    </g>
  </g>
</svg>
